<?xml version="1.0" encoding="UTF-8"?>
<svg id="Layer_3" data-name="Layer 3" xmlns="http://www.w3.org/2000/svg" viewBox="0 0 500 500">
  <path d="M192.48,108.11c-8.43-17.66-26.58-39.75-65.16-44.56-43.91-5.43-79.35,13.1-99.52,52.37-31.94,62.26-19.19,174.58,24.57,221.77,22.25,27.1,50.12,42.02,76.06,42.02,8.68,0,17.15-1.68,25.12-5.13,26.26-11.38,39.93-38.8,35.65-71.55-1.24-9.32-2.95-18.41-4.65-27.3-.62-3.26-1.22-6.43-1.78-9.53,10.52,13.92,16.38,30.65,16.11,48.45l-1.19,104.96c-.11,9.71,7.67,17.66,17.38,17.78h.21c9.62,0,17.47-7.74,17.58-17.39l1.19-104.89c.46-30.77-11.2-59.78-32.79-81.7-5.74-5.83-12.05-10.84-18.72-15.23,1.18-3.46,2.61-6.86,4.66-10.17,14.52-23.41,21.32-66.37,5.29-99.9ZM120.07,199.43c-9.71,0-17.58,7.88-17.58,17.58s7.88,17.58,17.58,17.58c8.44,0,16.55,1.67,24.34,4.2.19,14.61,2.86,29.18,5.58,43.51,1.58,8.24,3.18,16.66,4.3,25.29,2.2,16.79-3.3,29.77-14.72,34.72-12.94,5.59-36.36,1.85-60.74-27.74-31.87-34.41-47.16-129.14-19.74-182.61,11.79-22.95,29.24-34.23,53.16-34.23,3.43,0,7.01.24,10.71.7,18.54,2.32,30.91,10.44,37.78,24.83,10.69,22.36,4.85,52.81-3.46,66.2-2.99,4.82-5.18,9.65-7.03,14.5-9.76-2.68-19.78-4.54-30.19-4.54Z" fill="#231f20" stroke-width="0"/>
  <path d="M372.71,63.55c-38.58,4.82-56.73,26.9-65.16,44.56-16.03,33.53-9.23,76.49,5.29,99.9,2.46,3.96,4.09,8.04,5.31,12.22-5.57,3.93-10.94,8.22-15.82,13.18-21.61,21.92-33.24,50.94-32.79,81.64l1.21,104.96c.11,9.64,7.97,17.38,17.58,17.38h.21c9.71-.11,17.49-8.08,17.38-17.79l-1.21-105.02c-.22-14.81,3.85-28.92,11.24-41.32-.16.83-.3,1.62-.46,2.46-1.69,8.89-3.41,17.98-4.65,27.3-4.28,32.75,9.39,60.17,35.65,71.55,7.99,3.47,16.48,5.14,25.21,5.14,25.87,0,53.57-14.78,75.28-41.25,44.44-47.98,57.19-160.3,25.25-222.56-20.17-39.28-55.63-57.88-99.52-52.37ZM420.52,315.37c-23.72,28.85-47.19,32.51-60.05,26.95-11.42-4.95-16.92-17.93-14.72-34.72,1.12-8.63,2.72-17.05,4.3-25.29,2.65-13.97,5.24-28.17,5.54-42.41,8.83-3.35,18.21-5.3,27.95-5.3s17.58-7.88,17.58-17.58-7.88-17.58-17.58-17.58c-11.57,0-22.69,2.24-33.43,5.53-1.91-5.18-4.18-10.35-7.37-15.49-8.31-13.39-14.15-43.84-3.46-66.2,6.87-14.39,19.23-22.51,37.78-24.83,29.58-3.62,50.39,7.29,63.88,33.53,27.43,53.47,12.13,148.2-20.42,183.4Z" fill="#231f20" stroke-width="0"/>
</svg>