<svg id="heart_White" data-name="heart White" xmlns="http://www.w3.org/2000/svg" xmlns:xlink="http://www.w3.org/1999/xlink" width="24.41" height="32.567" viewBox="0 0 24.41 32.567">
  <defs>
    <clipPath id="clip-path">
      <path id="Clip_2" data-name="Clip 2" d="M0,0H24.41V21.511H0Z" fill="none"/>
    </clipPath>
  </defs>
  <g id="Group_3" data-name="Group 3" transform="translate(0 11.056)">
    <path id="Clip_2-2" data-name="Clip 2" d="M0,0H24.41V21.511H0Z" transform="translate(0 0)" fill="none"/>
    <g id="Group_3-2" data-name="Group 3" transform="translate(0 0)" clip-path="url(#clip-path)">
      <path id="Fill_1" data-name="Fill 1" d="M20.7.593A6.412,6.412,0,0,0,12.816,2.66c2.571-.221,4.679.407,4.77,1.094l-.248,2.358-.019,0a.635.635,0,0,0,0-.14c-.12-.91-2.254-1.381-4.767-1.051S8.1,6.258,8.219,7.168a.622.622,0,0,0,.037.135l-.045.006L7.386,5.092C7.3,4.406,9.163,3.259,11.7,2.807A6.411,6.411,0,0,0,3.706.593C.287,2.173-1.349,6.215,1.351,10.983c1.918,3.388,4.925,5.946,10.855,10.529q.7-.54,1.341-1.042A91.587,91.587,0,0,0,10.393,7.4h0c-.065-.489.977-1.028,2.326-1.205s2.5.076,2.559.564a73.956,73.956,0,0,0,.157,12.219c3.86-3.1,6.092-5.284,7.625-7.992C25.759,6.215,24.123,2.173,20.7.593" transform="translate(0 0)" fill="#fff"/>
    </g>
  </g>
  <path id="Fill_6" data-name="Fill 6" d="M6.223,7.153a3.409,3.409,0,0,0-1.478,3.668c1.417-2.081,5.727-.2,7.16-4.981a4.29,4.29,0,0,1-2.832.912A4.319,4.319,0,0,0,10.663,0c.62,2.77-2.922,3.01-5.7,3.528-5.223.978-6.075,5.791-3.705,8.246C.982,8.862,3.315,7.125,6.223,7.153" transform="translate(9.157)" fill="#fff"/>
</svg>
