<?xml version="1.0" encoding="UTF-8"?>
<svg id="Content" xmlns="http://www.w3.org/2000/svg" viewBox="0 0 500 500">
  <defs>
    <style>
      .cls-1 {
        stroke-width: 0px;
      }
    </style>
  </defs>
  <path class="cls-1" d="M471.54,368.56c10.19,0,18.46-8.27,18.46-18.46V77.69c0-37.33-30.36-67.69-67.69-67.69H77.69C40.36,10,10,40.36,10,77.69v344.62c0,37.33,30.36,67.69,67.69,67.69h344.62c37.33,0,67.69-30.36,67.69-67.69,0-10.19-8.27-18.46-18.46-18.46s-18.46,8.27-18.46,18.46c0,16.97-13.8,30.77-30.77,30.77H77.69c-16.97,0-30.77-13.8-30.77-30.77V77.69c0-16.97,13.8-30.77,30.77-30.77h344.62c16.97,0,30.77,13.8,30.77,30.77v272.4c0,10.19,8.27,18.46,18.46,18.46Z"/>
  <circle class="cls-1" cx="151.54" cy="126.92" r="24.62"/>
  <path class="cls-1" d="M274.56,145.38c19.82,0,35.93,13.8,35.93,30.77,0,10.19,8.27,18.46,18.46,18.46s18.46-8.27,18.46-18.46c0-37.33-32.67-67.69-72.85-67.69s-72.85,30.36-72.85,67.69v147.69c0,37.33,32.68,67.69,72.86,67.69s72.84-30.36,72.86-67.67c0-10.19-8.25-18.46-18.44-18.46h-.02c-10.19,0-18.46,8.25-18.46,18.44-.02,16.97-16.13,30.77-35.95,30.77s-35.93-13.8-35.93-30.77v-147.69c0-16.97,16.12-30.77,35.93-30.77Z"/>
</svg>