<?xml version="1.0" encoding="UTF-8"?>
<svg id="Content" xmlns="http://www.w3.org/2000/svg" viewBox="0 0 500 500">
  <defs>
    <style>
      .cls-1 {
        stroke-width: 0px;
      }
    </style>
  </defs>
  <path class="cls-1" d="M74.15,253.8c-1.77-10.06-11.43-16.68-21.38-14.99l-27.5,4.84c-10.05,1.77-16.75,11.35-14.99,21.38,1.59,8.97,9.37,15.26,18.16,15.26,1.07,0,2.14-.08,3.22-.28l27.5-4.84c10.05-1.77,16.75-11.35,14.99-21.38Z"/>
  <path class="cls-1" d="M42.47,146.41l24.18,13.94c2.91,1.67,6.07,2.46,9.21,2.46,6.38,0,12.58-3.32,16.01-9.24,5.08-8.83,2.06-20.12-6.78-25.22l-24.18-13.94c-8.85-5.11-20.12-2.07-25.22,6.78-5.08,8.83-2.06,20.12,6.78,25.22Z"/>
  <path class="cls-1" d="M146.34,77.12c2.73,7.49,9.81,12.14,17.34,12.14,2.1,0,4.23-.36,6.32-1.12,9.58-3.49,14.52-14.09,11.02-23.67l-9.54-26.19c-3.49-9.57-14.09-14.5-23.67-11.02-9.58,3.49-14.52,14.09-11.02,23.67l9.54,26.19Z"/>
  <path class="cls-1" d="M271.99,88.15c2.09.76,4.22,1.12,6.32,1.12,7.54,0,14.62-4.65,17.34-12.14l9.54-26.2c3.5-9.58-1.44-20.18-11.02-23.67-9.6-3.5-20.18,1.43-23.67,11.02l-9.54,26.2c-3.5,9.58,1.44,20.18,11.02,23.67Z"/>
  <path class="cls-1" d="M366.12,162.81c3.14,0,6.31-.79,9.21-2.46l24.18-13.94c8.83-5.1,11.86-16.38,6.78-25.22-5.13-8.83-16.45-11.87-25.22-6.78l-24.18,13.94c-8.83,5.1-11.86,16.38-6.78,25.22,3.43,5.93,9.63,9.24,16.01,9.24Z"/>
  <path class="cls-1" d="M414.03,269.91c-13.14-31.04-36.45-55.69-65-71.31-13.5-58.87-66.6-102.33-128.03-102.33-72.74,0-131.91,59.09-131.91,131.71,0,26.38,8.06,52.18,22.63,73.75-26.73,16.51-44.37,45.76-44.37,78.81,0,51.47,41.92,93.33,93.46,93.33h117.87c10.19,0,18.46-8.27,18.46-18.46s-8.27-18.46-18.46-18.46h-117.87c-31.18,0-56.54-25.3-56.54-56.41,0-28.3,21.42-52.22,49.82-55.64,8.17-.99,14.71-7.26,16.02-15.4,8.62-53.5,54.28-92.32,108.57-92.32,47.1,0,88.97,29.95,104.17,74.52,2.19,6.41,7.7,11.09,14.36,12.24,32.38,5.53,55.88,33.24,55.88,65.91,0,36.99-30.17,67.09-67.26,67.09h-42.62c-10.19,0-18.46,8.27-18.46,18.46s8.27,18.46,18.46,18.46h42.62c57.45,0,104.18-46.66,104.18-104.01,0-47.07-31.36-87.51-75.97-99.94ZM278.67,180.26c-63.46,0-117.63,39.98-138,97.81-9.31-14.9-14.67-32.25-14.67-50.09,0-52.26,42.61-94.78,94.99-94.78,35.39,0,67.06,19.94,83.33,49.55-8.39-1.49-16.92-2.48-25.65-2.48Z"/>
</svg>