<?xml version="1.0" encoding="UTF-8"?>
<svg id="Content" xmlns="http://www.w3.org/2000/svg" viewBox="0 0 500 500">
  <defs>
    <style>
      .cls-1 {
        stroke-width: 0px;
      }
    </style>
  </defs>
  <path class="cls-1" d="M454.88,311.1c19.64-21.18,30.9-49.14,30.9-78.77,0-52.9-35.44-98.25-85.69-111.64-25.39-61.33-85.29-101.85-152.2-101.85-76.89,0-142.21,52.09-159.95,125.61-45.26,11.57-77.94,52.47-77.94,100.09,0,57.17,46.52,103.7,103.7,103.7h3.12c-8.75,13.5-14.01,29.38-14.01,46.46,0,47.68,38.79,86.47,86.47,86.47h107.13c10.1,0,18.3-8.2,18.3-18.3s-8.2-18.3-18.3-18.3h-107.13c-27.5,0-49.87-22.37-49.87-49.87,0-25.03,18.88-46.18,43.94-49.18,8.1-.98,14.59-7.2,15.88-15.26,7.73-47.99,48.6-82.81,97.18-82.81,42.16,0,79.63,26.85,93.24,66.84,2.16,6.35,7.62,11.01,14.24,12.14,28.7,4.91,49.52,29.53,49.52,58.54,0,32.87-26.75,59.6-59.62,59.6h-38.73c-10.1,0-18.3,8.2-18.3,18.3s8.2,18.3,18.3,18.3h38.73c53.05,0,96.21-43.15,96.21-96.2,0-29.6-13.59-56.14-35.12-73.86ZM296.4,210.84c-62.24,0-115.23,41.67-130.6,100.79h-52.11c-37,0-67.1-30.09-67.1-67.1,0-33.68,25.39-62.17,59.06-66.25,8.1-.99,14.57-7.21,15.87-15.26,10.02-62.33,63.17-107.58,126.37-107.58,54.77,0,103.51,34.93,121.28,86.92,2.17,6.34,7.62,11,14.24,12.12,38.11,6.49,65.78,39.24,65.78,77.86,0,23.64-10.85,45.36-28.68,60.33-21.17-49.36-69.79-81.82-124.1-81.82Z"/>
</svg>