<?xml version="1.0" encoding="UTF-8"?>
<svg id="Content" xmlns="http://www.w3.org/2000/svg" viewBox="0 0 500 500">
  <defs>
    <style>
      .cls-1 {
        stroke-width: 0px;
      }
    </style>
  </defs>
  <path class="cls-1" d="M486.42,92.29c-7.45-28.37-25.48-52.15-50.78-66.91-25.22-14.69-54.6-18.73-82.9-11.25-21.65,5.82-40.55,18.03-54.99,34.49-16.18-5.3-33.29-8.31-50.97-8.31-76.45,0-141.41,51.76-159.16,124.83-45.1,11.52-77.63,52.17-77.63,99.61,0,56.93,46.38,103.26,103.36,103.26h133.43c10.19,0,18.46-8.27,18.46-18.46s-8.27-18.46-18.46-18.46H113.36c-36.64,0-66.43-29.76-66.43-66.33,0-33.32,25.15-61.48,58.52-65.44,8.17-.99,14.74-7.26,16.04-15.41,9.95-61.79,62.65-106.65,125.31-106.65,54.36,0,102.66,34.6,120.21,86.07,2.19,6.4,7.69,11.11,14.38,12.24,17.87,3.06,33.28,12.04,44.72,24.56.05.06.06.14.11.2.11.13.27.16.38.28,12.49,13.91,20.06,32.13,20.06,52.03,0,43.25-35.25,78.45-78.57,78.45h-48.23c-10.19,0-18.46,8.27-18.46,18.46s8.27,18.46,18.46,18.46h48.23c63.69,0,115.5-51.76,115.5-115.38,0-23.15-7.14-44.65-19.07-62.84,22.38-26.68,31.03-63.24,21.91-97.5ZM439.16,162.26c-11.96-9.34-25.65-16.68-40.96-20.78-13.34-32.23-36.46-58.41-64.99-76.17,8.37-7.09,18.14-12.56,29.02-15.48,18.63-4.98,38.08-2.28,54.79,7.45,16.76,9.79,28.73,25.56,33.68,44.45,5.6,21.07.99,43.36-11.55,60.52Z"/>
  <path class="cls-1" d="M125.5,403.76c-10.19,0-18.46,8.27-18.46,18.46v48.85c0,10.19,8.27,18.46,18.46,18.46s18.46-8.27,18.46-18.46v-48.85c0-10.19-8.27-18.46-18.46-18.46Z"/>
  <path class="cls-1" d="M246.79,403.76c-10.19,0-18.46,8.27-18.46,18.46v48.85c0,10.19,8.27,18.46,18.46,18.46s18.46-8.27,18.46-18.46v-48.85c0-10.19-8.27-18.46-18.46-18.46Z"/>
  <path class="cls-1" d="M368.08,403.76c-10.19,0-18.46,8.27-18.46,18.46v48.85c0,10.19,8.27,18.46,18.46,18.46s18.46-8.27,18.46-18.46v-48.85c0-10.19-8.27-18.46-18.46-18.46Z"/>
</svg>