<?xml version="1.0" encoding="UTF-8"?>
<svg id="Content" xmlns="http://www.w3.org/2000/svg" viewBox="0 0 500 500">
  <defs>
    <style>
      .cls-1 {
        stroke-width: 0px;
      }
    </style>
  </defs>
  <path class="cls-1" d="M362.3,122.32c-24.04,0-46.3,7.08-65.53,18.68-29.57-18.06-64.83-23.46-98.61-14.57-33.04,8.73-60.72,29.76-77.91,59.17-17.21,29.48-21.9,63.89-13.2,96.82,2.05,7.87,5.08,15.99,9.33,24.78,3.08,6.41,9.49,10.14,16.16,10.14,2.59,0,5.25-.57,7.74-1.77,8.91-4.29,12.66-14.99,8.37-23.9-3.22-6.67-5.48-12.63-6.95-18.31-6.27-23.75-2.91-48.5,9.47-69.69,12.38-21.19,32.32-36.32,56.11-42.6,20.17-5.28,41.08-3.45,59.79,4.74-19.95,22.53-32.46,51.81-32.46,84.2s12.46,61.54,32.34,84.05c-4.26,1.86-8.56,3.67-13.12,4.89-23.2,6.11-48.6,2.62-69.54-9.6-8.53-5.03-19.52-2.12-24.49,6.42-4.99,8.55-2.12,19.51,6.44,24.5,19.63,11.48,42.11,17.41,64.66,17.41,10.8,0,21.59-1.35,32.09-4.1,11.99-3.2,22.94-8.52,33.3-14.83,19.33,11.78,41.78,18.94,66.01,18.94,70.4,0,127.7-57.28,127.7-127.68s-57.29-127.68-127.7-127.68ZM362.3,341.87c-50.67,0-91.88-41.2-91.88-91.87s41.2-91.87,91.88-91.87,91.88,41.2,91.88,91.87-41.2,91.87-91.88,91.87Z"/>
  <path class="cls-1" d="M230.58,407.74c-9.89,0-17.91,8.02-17.91,17.91v27.02c0,9.89,8.02,17.91,17.91,17.91s17.91-8.02,17.91-17.91v-27.02c0-9.89-8.02-17.91-17.91-17.91Z"/>
  <path class="cls-1" d="M93.72,361.54l-19.1,19.11c-7,7-7,18.34,0,25.32,3.5,3.5,8.09,5.25,12.66,5.25s9.16-1.75,12.66-5.25l19.1-19.11c7-7,7-18.34,0-25.32-7.02-7.01-18.35-6.98-25.32,0Z"/>
  <path class="cls-1" d="M54.94,232.09h-27.03c-9.89,0-17.91,8.02-17.91,17.91s8.02,17.91,17.91,17.91h27.03c9.89,0,17.91-8.02,17.91-17.91s-8.02-17.91-17.91-17.91Z"/>
  <path class="cls-1" d="M93.72,138.46c3.5,3.5,8.09,5.25,12.66,5.25s9.16-1.75,12.66-5.25c7-7,7-18.34,0-25.32l-19.12-19.11c-7.02-7.02-18.35-6.97-25.32,0-7,7-7,18.34,0,25.32l19.12,19.11Z"/>
  <path class="cls-1" d="M230.58,92.26c9.89,0,17.91-8.02,17.91-17.91v-27.02c0-9.89-8.02-17.91-17.91-17.91s-17.91,8.02-17.91,17.91v27.02c0,9.89,8.02,17.91,17.91,17.91Z"/>
</svg>