<?xml version="1.0" encoding="UTF-8"?>
<svg id="Content" xmlns="http://www.w3.org/2000/svg" viewBox="0 0 500 500">
  <defs>
    <style>
      .cls-1 {
        stroke-width: 0px;
      }
    </style>
  </defs>
  <circle class="cls-1" cx="151.54" cy="126.92" r="24.62"/>
  <path class="cls-1" d="M323.85,170c10.19,0,18.46-8.27,18.46-18.46s-8.27-18.46-18.46-18.46h-98.46c-10.19,0-18.46,8.27-18.46,18.46v221.54c0,10.19,8.27,18.46,18.46,18.46s18.46-8.27,18.46-18.46v-104.61h80c10.19,0,18.46-8.27,18.46-18.46s-8.27-18.46-18.46-18.46h-80v-61.54h80Z"/>
  <path class="cls-1" d="M471.54,368.56c10.19,0,18.46-8.27,18.46-18.46V77.69c0-37.33-30.36-67.69-67.69-67.69H77.69C40.36,10,10,40.36,10,77.69v344.61c0,37.33,30.36,67.69,67.69,67.69h344.61c37.33,0,67.69-30.36,67.69-67.69,0-10.19-8.27-18.46-18.46-18.46s-18.46,8.27-18.46,18.46c0,16.97-13.8,30.77-30.77,30.77H77.69c-16.97,0-30.77-13.8-30.77-30.77V77.69c0-16.97,13.8-30.77,30.77-30.77h344.61c16.97,0,30.77,13.8,30.77,30.77v272.4c0,10.19,8.27,18.46,18.46,18.46Z"/>
</svg>