<?xml version="1.0" encoding="UTF-8"?>
<svg id="Content" xmlns="http://www.w3.org/2000/svg" viewBox="0 0 500 500">
  <defs>
    <style>
      .cls-1 {
        stroke-width: 0px;
      }
    </style>
  </defs>
  <path class="cls-1" d="M403.46,112.73c-25.53-61.86-85.91-102.73-153.46-102.73-77.52,0-143.39,52.56-161.27,126.74-45.72,11.62-78.73,52.87-78.73,100.95,0,57.68,46.92,104.61,104.61,104.61h135.39c10.19,0,18.46-8.27,18.46-18.46s-8.27-18.46-18.46-18.46H114.61c-37.33,0-67.69-30.36-67.69-67.69,0-34,25.65-62.72,59.64-66.79,8.2-.99,14.73-7.26,16.03-15.4,10.12-62.92,63.7-108.58,127.4-108.58,55.26,0,104.4,35.22,122.24,87.63,2.19,6.41,7.69,11.1,14.37,12.25,38.51,6.59,66.47,39.63,66.47,78.58,0,44.11-35.89,80-80,80h-48.94c-10.19,0-18.46,8.27-18.46,18.46s8.27,18.46,18.46,18.46h48.94c64.47,0,116.92-52.45,116.92-116.92,0-53.34-35.79-99.11-86.54-112.66Z"/>
  <path class="cls-1" d="M293.08,397.69c0-10.19-8.27-18.46-18.46-18.46H77.69c-10.19,0-18.46,8.27-18.46,18.46s8.27,18.46,18.46,18.46h196.92c10.19,0,18.46-8.27,18.46-18.46Z"/>
  <path class="cls-1" d="M373.08,453.08h-98.46c-10.19,0-18.46,8.27-18.46,18.46s8.27,18.46,18.46,18.46h98.46c10.19,0,18.46-8.27,18.46-18.46s-8.27-18.46-18.46-18.46Z"/>
  <path class="cls-1" d="M422.31,379.23h-73.85c-10.19,0-18.46,8.27-18.46,18.46s8.27,18.46,18.46,18.46h73.85c10.19,0,18.46-8.27,18.46-18.46s-8.27-18.46-18.46-18.46Z"/>
  <path class="cls-1" d="M200.77,453.08h-73.85c-10.19,0-18.46,8.27-18.46,18.46s8.27,18.46,18.46,18.46h73.85c10.19,0,18.46-8.27,18.46-18.46s-8.27-18.46-18.46-18.46Z"/>
</svg>