<?xml version="1.0" encoding="UTF-8"?>
<svg id="Content" xmlns="http://www.w3.org/2000/svg" viewBox="0 0 500 500">
  <defs>
    <style>
      .cls-1 {
        stroke-width: 0px;
      }
    </style>
  </defs>
  <path class="cls-1" d="M250,10c-22.54,0-67.69,37.52-100.64,74.59-6.78,7.62-6.09,19.28,1.54,26.06,7.62,6.78,19.31,6.11,26.06-1.54,33.65-37.84,63.65-58.1,73.08-61.83,25.64,9.66,156.09,120.48,156.09,249.35,0,86.27-70.04,156.44-156.13,156.44s-156.13-70.17-156.13-156.44c0-43.73,14.7-89.23,43.68-135.26,5.43-8.63,2.84-20.02-5.79-25.46-8.59-5.43-20.02-2.84-25.46,5.79-32.74,52-49.35,104.13-49.35,154.93,0,106.61,86.6,193.37,193.05,193.37s193.05-86.75,193.05-193.37c0-154.38-156.39-286.63-193.05-286.63Z"/>
  <path class="cls-1" d="M369.21,296.63c0-10.19-8.27-18.46-18.46-18.46s-18.46,8.27-18.46,18.46c0,45.55-36.91,82.6-82.28,82.6-10.19,0-18.46,8.27-18.46,18.46s8.27,18.46,18.46,18.46c65.73,0,119.21-53.61,119.21-119.52Z"/>
</svg>