<?xml version="1.0" encoding="UTF-8"?>
<svg id="Content" xmlns="http://www.w3.org/2000/svg" viewBox="0 0 500 500">
  <defs>
    <style>
      .cls-1 {
        stroke-width: 0px;
      }
    </style>
  </defs>
  <path class="cls-1" d="M165.65,490c-3.35,0-6.73-.94-9.73-2.85-7.2-4.61-10.19-13.65-7.15-21.65l57.74-151.93-118.36-19.39c-6.66-1.08-12.15-5.79-14.26-12.21-2.09-6.4-.45-13.46,4.27-18.26L321.44,15.43c5.96-6.12,15.41-7.18,22.65-2.59,7.2,4.61,10.19,13.65,7.15,21.65l-57.74,151.93,118.36,19.39c6.66,1.08,12.15,5.79,14.26,12.21,2.09,6.4.45,13.46-4.27,18.28l-67.57,68.94c-7,7.13-18.42,7.22-25.55.26-7.13-6.99-7.25-18.45-.26-25.58l43.2-44.07-105.84-17.34c-5.35-.87-10.04-4.12-12.74-8.82-2.71-4.68-3.16-10.35-1.24-15.44l34.88-91.77-158.4,161.65,105.85,17.34c5.35.87,10.04,4.12,12.74,8.82,2.71,4.68,3.16,10.35,1.24,15.44l-34.88,91.77,67.95-69.34c6.99-7.15,18.42-7.25,25.55-.28,7.13,6.99,7.25,18.42.26,25.55l-128.47,131.13c-3.49,3.58-8.19,5.44-12.92,5.44Z"/>
</svg>