<?xml version="1.0" encoding="UTF-8"?>
<svg id="Content" xmlns="http://www.w3.org/2000/svg" viewBox="0 0 500 500">
  <defs>
    <style>
      .cls-1 {
        stroke-width: 0px;
      }
    </style>
  </defs>
  <path class="cls-1" d="M106.42,419.67c7.21-7.21,7.21-18.89,0-26.11-38.37-38.37-59.5-89.36-59.5-143.59,0-107.18,83.46-195.22,188.77-202.58-33,28.57-53.39,70.79-53.39,116.43,0,84.83,69.01,153.85,153.85,153.85,45.65,0,87.86-20.37,116.42-53.4-7.36,105.34-95.41,188.79-202.57,188.79-32.21,0-63-7.32-91.51-21.75-9.11-4.6-20.22-.94-24.81,8.14-4.62,9.1-.96,20.22,8.12,24.82,33.75,17.07,70.14,25.72,108.2,25.72,132.33,0,240-107.67,240-240,0-17.21-1.97-34.93-5.84-52.67-1.8-8.28-8.99-14.27-17.48-14.52-8.22-.24-16.01,5.28-18.32,13.43-14.09,49.77-60.22,84.53-112.21,84.53-64.47,0-116.92-52.45-116.92-116.92,0-52,34.76-98.14,84.54-112.21,8.15-2.31,13.68-9.86,13.44-18.33-.26-8.46-6.25-15.67-14.52-17.48C148.37-17.89,10,100.43,10,249.97c0,64.1,24.98,124.36,70.31,169.7,7.21,7.21,18.89,7.21,26.11,0Z"/>
</svg>