<?xml version="1.0" encoding="UTF-8"?>
<svg id="Content" xmlns="http://www.w3.org/2000/svg" viewBox="0 0 500 500">
  <defs>
    <style>
      .cls-1 {
        stroke-width: 0px;
      }
    </style>
  </defs>
  <path class="cls-1" d="M403.46,125.04c-25.53-61.86-85.91-102.73-153.46-102.73-77.5,0-143.37,52.56-161.27,126.74-45.72,11.62-78.73,52.87-78.73,100.95,0,57.68,46.94,104.61,104.61,104.61h135.39c10.19,0,18.46-8.27,18.46-18.46s-8.27-18.46-18.46-18.46H114.61c-37.33,0-67.69-30.36-67.69-67.69,0-34,25.64-62.72,59.64-66.79,8.17-.99,14.72-7.26,16.02-15.4,10.13-62.92,63.71-108.58,127.42-108.58,55.26,0,104.4,35.22,122.24,87.63,2.19,6.41,7.69,11.1,14.37,12.25,38.51,6.59,66.47,39.63,66.47,78.58,0,44.11-35.89,80-80,80h-48.94c-10.19,0-18.46,8.27-18.46,18.46s8.27,18.46,18.46,18.46h48.94c64.47,0,116.92-52.45,116.92-116.92,0-53.34-35.79-99.11-86.54-112.66Z"/>
  <path class="cls-1" d="M147.49,393.49c-9.1-4.52-20.19-.85-24.77,8.26l-24.62,49.23c-4.56,9.12-.87,20.2,8.26,24.77,2.66,1.32,5.47,1.95,8.24,1.95,6.77,0,13.29-3.74,16.53-10.2l24.62-49.23c4.56-9.12.87-20.2-8.26-24.77Z"/>
  <path class="cls-1" d="M270.56,393.49c-9.11-4.52-20.2-.85-24.77,8.26l-24.62,49.23c-4.56,9.12-.87,20.2,8.26,24.77,2.66,1.32,5.47,1.95,8.25,1.95,6.77,0,13.29-3.74,16.53-10.2l24.62-49.23c4.57-9.12.87-20.2-8.26-24.77Z"/>
  <path class="cls-1" d="M393.63,393.49c-9.11-4.52-20.19-.84-24.76,8.26l-24.62,49.23c-4.57,9.12-.87,20.2,8.27,24.77,2.64,1.32,5.46,1.95,8.22,1.95,6.78,0,13.29-3.74,16.54-10.2l24.62-49.23c4.57-9.12.87-20.2-8.27-24.77Z"/>
</svg>