<?xml version="1.0" encoding="UTF-8"?>
<svg id="Content" xmlns="http://www.w3.org/2000/svg" viewBox="0 0 500 500">
  <defs>
    <style>
      .cls-1 {
        stroke-width: 0px;
      }
    </style>
  </defs>
  <path class="cls-1" d="M403.46,125.05c-25.53-61.88-85.91-102.74-153.46-102.74-77.5,0-143.37,52.57-161.27,126.75-45.72,11.61-78.73,52.86-78.73,100.94,0,57.69,46.94,104.61,104.61,104.61h135.39c10.19,0,18.46-8.27,18.46-18.46s-8.27-18.46-18.46-18.46H114.61c-37.33,0-67.69-30.36-67.69-67.69,0-33.99,25.64-62.72,59.64-66.78,8.17-.99,14.72-7.28,16.02-15.41,10.13-62.91,63.71-108.58,127.42-108.58,55.29,0,104.4,35.22,122.24,87.62,2.19,6.42,7.69,11.13,14.37,12.26,38.51,6.59,66.47,39.64,66.47,78.58,0,44.11-35.89,80-80,80h-48.94c-10.19,0-18.46,8.27-18.46,18.46s8.27,18.46,18.46,18.46h48.94c64.47,0,116.92-52.45,116.92-116.92,0-53.34-35.79-99.11-86.54-112.65Z"/>
  <path class="cls-1" d="M147.49,393.49c-9.1-4.52-20.19-.89-24.77,8.27l-24.62,49.23c-4.56,9.11-.87,20.19,8.26,24.76,2.66,1.32,5.47,1.95,8.24,1.95,6.77,0,13.29-3.73,16.53-10.22l24.62-49.23c4.56-9.11.87-20.19-8.26-24.76Z"/>
  <path class="cls-1" d="M270.56,393.49c-9.11-4.52-20.2-.89-24.77,8.27l-24.62,49.23c-4.56,9.11-.87,20.19,8.26,24.76,2.66,1.32,5.47,1.95,8.25,1.95,6.77,0,13.29-3.73,16.53-10.22l24.62-49.23c4.57-9.11.87-20.19-8.26-24.76Z"/>
  <path class="cls-1" d="M393.63,393.49c-9.11-4.54-20.19-.87-24.76,8.27l-24.62,49.23c-4.57,9.11-.87,20.19,8.27,24.76,2.64,1.32,5.46,1.95,8.22,1.95,6.78,0,13.29-3.73,16.54-10.22l24.62-49.23c4.57-9.11.87-20.19-8.27-24.76Z"/>
  <path class="cls-1" d="M301.87,215.55l-14.95-8.63,14.95-8.63c8.82-5.1,11.85-16.39,6.76-25.22-5.07-8.82-16.37-11.88-25.22-6.75l-14.95,8.63v-17.26c0-10.19-8.27-18.46-18.46-18.46s-18.46,8.27-18.46,18.46v17.26l-14.94-8.63c-8.82-5.1-20.12-2.07-25.22,6.75-5.1,8.82-2.08,20.12,6.75,25.22l14.95,8.63-14.94,8.63c-8.83,5.1-11.85,16.39-6.75,25.22,3.41,5.91,9.63,9.23,16,9.23,3.14,0,6.31-.79,9.22-2.48l14.93-8.62v17.25c0,10.19,8.27,18.46,18.46,18.46s18.46-8.27,18.46-18.46v-17.26l14.95,8.63c2.91,1.68,6.08,2.48,9.21,2.48,6.4,0,12.6-3.32,16.01-9.23,5.1-8.82,2.07-20.12-6.76-25.22Z"/>
</svg>