<?xml version="1.0" encoding="UTF-8"?>
<svg id="Content" xmlns="http://www.w3.org/2000/svg" viewBox="0 0 500 500">
  <defs>
    <style>
      .cls-1 {
        stroke-width: 0px;
      }
    </style>
  </defs>
  <path class="cls-1" d="M399.61,110.14c-24.9-60.3-83.77-100.14-149.61-100.14-75.56,0-139.77,51.24-157.23,123.57-44.57,11.33-76.75,51.55-76.75,98.42,0,56.23,45.76,101.99,101.99,101.99h131.99c9.94,0,18-8.06,18-18s-8.06-18-18-18H118.01c-36.4,0-66-29.6-66-66,0-33.15,24.99-61.14,58.14-65.12,7.97-.96,14.35-7.08,15.62-15.01,9.88-61.34,62.12-105.86,124.22-105.86,53.89,0,101.78,34.33,119.18,85.42,2.12,6.25,7.5,10.83,14,11.94,37.54,6.43,64.8,38.66,64.8,76.62,0,43-34.99,77.99-77.99,77.99h-47.73c-9.94,0-18,8.06-18,18s8.06,18,18,18h47.73c62.85,0,113.99-51.14,113.99-113.99,0-52-34.9-96.63-84.37-109.84Z"/>
  <circle class="cls-1" cx="106.01" cy="394.01" r="24"/>
  <circle class="cls-1" cx="250" cy="394.01" r="24"/>
  <circle class="cls-1" cx="393.99" cy="394.01" r="24"/>
  <circle class="cls-1" cx="178.01" cy="466" r="24"/>
  <circle class="cls-1" cx="321.99" cy="466" r="24"/>
</svg>