<?xml version="1.0" encoding="UTF-8"?>
<svg id="Content" xmlns="http://www.w3.org/2000/svg" viewBox="0 0 500 500">
  <defs>
    <style>
      .cls-1 {
        stroke-width: 0px;
      }
    </style>
  </defs>
  <path class="cls-1" d="M50.74,273.76c-8.79-4.44-19.48-.74-23.78,8.05-4.35,8.79-.76,19.46,8.05,23.78l44.79,22.15-31.1,17.99c-8.49,4.93-11.38,15.8-6.48,24.29,3.31,5.69,9.28,8.86,15.41,8.86,3.01,0,6.09-.76,8.88-2.38l31.06-17.97-3.22,49.86c-.65,9.81,6.78,18.26,16.57,18.88.39.02.79.05,1.18.05,9.28,0,17.1-7.22,17.7-16.61l4.76-73.57,56.98-32.97c2.29-.33,4.56-1.11,6.68-2.39,8.4-5.04,11.13-15.96,6.06-24.39-7.31-12.19-9.44-26.51-5.99-40.33,3.45-13.81,12.08-25.45,24.29-32.79,12.19-7.31,26.56-9.46,40.35-5.99,13.81,3.45,25.45,12.08,32.79,24.29,7.31,12.19,9.44,26.54,5.99,40.35-5.94,23.77-27.16,40.37-51.62,40.39-.03,0-.06-.02-.09-.02-9.81,0-17.77,7.96-17.77,17.77v72.49l-61.29,40.86c-8.17,5.44-10.37,16.47-4.93,24.64,5.44,8.14,16.47,10.34,24.64,4.93l41.58-27.72v35.95c0,9.81,7.96,17.77,17.77,17.77s17.77-7.96,17.77-17.77v-35.95l41.58,27.72c3.03,2.01,6.46,2.98,9.83,2.98,5.74,0,11.38-2.78,14.81-7.91,5.44-8.17,3.24-19.2-4.93-24.64l-61.29-40.86v-56.66c19.08-3.88,36.1-13.81,48.72-28.1l48.93,28.31,4.76,73.57c.6,9.39,8.42,16.61,17.7,16.61.39,0,.79-.02,1.18-.05,9.79-.62,17.21-9.07,16.57-18.88l-3.23-49.86,31.11,18c2.8,1.62,5.85,2.38,8.86,2.38,6.15,0,12.12-3.19,15.41-8.88,4.91-8.51,1.99-19.37-6.5-24.27l-31.12-18,44.81-22.16c8.82-4.35,12.4-14.99,8.05-23.78-4.35-8.82-14.99-12.47-23.78-8.05l-66,32.64-49.22-28.47c.71-2.13,1.62-4.16,2.17-6.37,4.16-16.63,3.31-33.66-2-49.54l49.07-28.39,66,32.62c2.52,1.27,5.21,1.85,7.84,1.85,6.55,0,12.86-3.63,15.94-9.9,4.35-8.79.76-19.46-8.05-23.78l-44.79-22.15,31.1-17.99c8.49-4.93,11.38-15.8,6.48-24.29-4.95-8.49-15.8-11.43-24.29-6.48l-31.06,17.97,3.22-49.83c.65-9.81-6.78-18.26-16.57-18.88-9.56-.58-18.26,6.78-18.88,16.57l-4.76,73.55-48.96,28.33c-11.8-13.38-27.26-22.97-44.94-27.38-1.25-.32-2.52-.31-3.77-.57v-56.81l61.29-40.86c8.17-5.44,10.37-16.47,4.93-24.64-5.44-8.17-16.47-10.37-24.64-4.93l-41.58,27.72V27.77c0-9.81-7.96-17.77-17.77-17.77s-17.77,7.96-17.77,17.77v35.95l-41.58-27.72c-8.17-5.44-19.2-3.24-24.64,4.93-5.44,8.17-3.24,19.2,4.93,24.64l61.29,40.86v56.79c-9.72,2-19.19,5.32-27.95,10.58-7.89,4.74-14.56,10.83-20.51,17.53l-49.22-28.48-4.76-73.55c-.62-9.79-9.12-17.12-18.88-16.57-9.79.62-17.21,9.07-16.57,18.88l3.22,49.83-31.06-17.97c-8.47-4.91-19.34-1.99-24.29,6.48-4.91,8.49-2.01,19.37,6.48,24.29l31.12,18-44.81,22.17c-8.82,4.35-12.4,14.99-8.05,23.78,3.1,6.27,9.39,9.9,15.94,9.9,2.64,0,5.32-.58,7.84-1.85l66-32.64,49.32,28.53c-.7,2.13-1.7,4.12-2.25,6.31-4.16,16.63-3.31,33.66,2.01,49.53l-49.08,28.39-66-32.62Z"/>
</svg>