<?xml version="1.0" encoding="UTF-8"?>
<svg id="Content" xmlns="http://www.w3.org/2000/svg" viewBox="0 0 500 500">
  <defs>
    <style>
      .cls-1 {
        stroke-width: 0px;
      }
    </style>
  </defs>
  <path class="cls-1" d="M383.73,214.87c-9.39-35.73-32.12-65.66-64.01-84.28-31.89-18.62-69.12-23.68-104.85-14.32-73.73,19.37-117.96,95.13-98.6,168.86,2.45,9.35,5.88,18.41,10.17,26.97,4.49,8.91,15.35,12.5,24.21,8.03,8.9-4.46,12.49-15.3,8.03-24.21-3.17-6.32-5.71-13.03-7.51-19.95-6.94-26.41-3.18-53.93,10.58-77.5,13.77-23.58,35.89-40.38,62.29-47.3,26.36-6.95,53.9-3.18,77.5,10.58,23.58,13.77,40.38,35.89,47.3,62.29,6.94,26.41,3.18,53.93-10.58,77.5-13.77,23.58-35.89,40.38-62.29,47.3-26.41,6.97-53.94,3.17-77.5-10.59-8.58-5-19.64-2.1-24.67,6.49-5.01,8.59-2.11,19.64,6.49,24.67,21.44,12.52,45.3,18.91,69.48,18.91,11.79,0,23.66-1.53,35.35-4.59,73.73-19.37,117.96-95.13,98.6-168.86Z"/>
  <path class="cls-1" d="M250,424.33c-9.96,0-18.03,8.08-18.03,18.03v29.6c0,9.96,8.08,18.03,18.03,18.03s18.03-8.08,18.03-18.03v-29.6c0-9.96-8.08-18.03-18.03-18.03Z"/>
  <path class="cls-1" d="M101.23,373.29l-20.92,20.93c-7.04,7.04-7.04,18.47,0,25.5,3.52,3.52,8.14,5.28,12.75,5.28s9.23-1.76,12.75-5.28l20.92-20.93c7.04-7.04,7.04-18.47,0-25.5-7.04-7.04-18.46-7.04-25.5,0Z"/>
  <path class="cls-1" d="M57.63,231.97h-29.6c-9.96,0-18.03,8.08-18.03,18.03s8.08,18.03,18.03,18.03h29.6c9.96,0,18.03-8.08,18.03-18.03s-8.08-18.03-18.03-18.03Z"/>
  <path class="cls-1" d="M101.22,126.73c3.52,3.52,8.14,5.28,12.75,5.28s9.23-1.76,12.75-5.28c7.04-7.04,7.04-18.46,0-25.5l-20.92-20.92c-7.04-7.04-18.46-7.04-25.5,0-7.04,7.04-7.04,18.46,0,25.5l20.92,20.92Z"/>
  <path class="cls-1" d="M250,75.67c9.96,0,18.03-8.08,18.03-18.03v-29.6c0-9.96-8.08-18.03-18.03-18.03s-18.03,8.08-18.03,18.03v29.6c0,9.96,8.08,18.03,18.03,18.03Z"/>
  <path class="cls-1" d="M386.02,132c4.61,0,9.23-1.76,12.75-5.28l20.92-20.92c7.04-7.04,7.04-18.46,0-25.5-7.04-7.04-18.46-7.04-25.5,0l-20.92,20.92c-7.04,7.04-7.04,18.46,0,25.5,3.52,3.52,8.14,5.28,12.75,5.28Z"/>
  <path class="cls-1" d="M471.97,231.97h-29.6c-9.96,0-18.03,8.08-18.03,18.03s8.08,18.03,18.03,18.03h29.6c9.96,0,18.03-8.08,18.03-18.03s-8.08-18.03-18.03-18.03Z"/>
  <path class="cls-1" d="M398.8,373.27c-7.04-7.04-18.46-7.04-25.5,0-7.04,7.04-7.04,18.47,0,25.5l20.93,20.92c3.52,3.52,8.14,5.28,12.75,5.28s9.23-1.76,12.75-5.28c7.04-7.04,7.04-18.47,0-25.5l-20.93-20.92Z"/>
</svg>