<?xml version="1.0" encoding="UTF-8"?>
<svg id="Content" xmlns="http://www.w3.org/2000/svg" viewBox="0 0 500 500">
  <defs>
    <style>
      .cls-1 {
        stroke-width: 0px;
      }
    </style>
  </defs>
  <path class="cls-1" d="M386.32,357.46H113.68c-10.19,0-18.46,8.27-18.46,18.46s8.27,18.46,18.46,18.46h272.64c10.19,0,18.46-8.27,18.46-18.46s-8.27-18.46-18.46-18.46Z"/>
  <path class="cls-1" d="M315.05,431.3h-130.1c-10.19,0-18.46,8.27-18.46,18.46s8.27,18.46,18.46,18.46h130.1c10.19,0,18.46-8.27,18.46-18.46s-8.27-18.46-18.46-18.46Z"/>
  <path class="cls-1" d="M471.54,283.61h-68c-3.26-81.97-70.78-147.69-153.53-147.69s-150.27,65.72-153.53,147.69H28.46c-10.19,0-18.46,8.27-18.46,18.46s8.27,18.46,18.46,18.46h221.54c10.19,0,18.46-8.27,18.46-18.46s-8.27-18.46-18.46-18.46h-116.3c3.28-61.56,53.94-110.77,116.3-110.77s113.03,49.21,116.3,110.77h-42.45c-10.19,0-18.46,8.27-18.46,18.46s8.27,18.46,18.46,18.46h147.69c10.19,0,18.46-8.27,18.46-18.46s-8.27-18.46-18.46-18.46Z"/>
  <path class="cls-1" d="M28.22,224.81l28.8,9.36c1.88.61,3.8.9,5.7.9,7.79,0,15.02-4.95,17.55-12.75,3.17-9.7-2.14-20.11-11.85-23.27l-28.8-9.36c-9.57-3.11-20.1,2.15-23.25,11.85-3.17,9.7,2.14,20.11,11.85,23.27Z"/>
  <path class="cls-1" d="M119.33,129c3.61,4.98,9.23,7.61,14.95,7.61,3.75,0,7.55-1.14,10.84-3.53,8.25-5.99,10.07-17.54,4.06-25.78l-17.81-24.51c-5.99-8.25-17.48-10.14-25.79-4.07-8.25,5.99-10.07,17.54-4.06,25.78l17.81,24.51Z"/>
  <path class="cls-1" d="M250,99c10.19,0,18.46-8.27,18.46-18.46v-30.3c0-10.19-8.27-18.46-18.46-18.46s-18.46,8.27-18.46,18.46v30.3c0,10.19,8.27,18.46,18.46,18.46Z"/>
  <path class="cls-1" d="M365.72,136.6c5.72,0,11.35-2.63,14.95-7.61l17.81-24.51c6.01-8.25,4.18-19.8-4.06-25.78-8.29-6.03-19.81-4.15-25.79,4.07l-17.81,24.51c-6.01,8.25-4.18,19.8,4.06,25.78,3.29,2.39,7.09,3.53,10.84,3.53Z"/>
  <path class="cls-1" d="M437.28,235.08c1.88,0,3.8-.29,5.7-.9l28.82-9.36c9.71-3.15,15-13.57,11.85-23.27-3.12-9.68-13.44-14.99-23.25-11.85l-28.82,9.36c-9.71,3.15-15,13.57-11.85,23.27,2.52,7.8,9.76,12.75,17.55,12.75Z"/>
</svg>