<?xml version="1.0" encoding="UTF-8"?>
<svg id="Content" xmlns="http://www.w3.org/2000/svg" viewBox="0 0 500 500">
  <defs>
    <style>
      .cls-1 {
        stroke-width: 0px;
      }
    </style>
  </defs>
  <path class="cls-1" d="M286.93,102.31c0-50.89-41.41-92.31-92.31-92.31s-92.31,41.42-92.31,92.31v111.06c0,10.19,8.27,18.46,18.46,18.46s18.46-8.27,18.46-18.46v-111.06c0-30.53,24.84-55.38,55.38-55.38s55.38,24.86,55.38,55.38v176.44c0,5.24,2.22,10.22,6.11,13.73,19.88,17.88,30.82,42.14,30.82,68.29,0,50.89-41.41,92.31-92.31,92.31s-92.31-41.42-92.31-92.31c0-26.15,10.94-50.41,30.82-68.29,7.57-6.83,8.19-18.51,1.37-26.08-6.83-7.57-18.47-8.2-26.08-1.37-27.34,24.62-43.03,59.52-43.03,95.75,0,71.25,57.97,129.23,129.23,129.23s129.23-57.98,129.23-129.23c0-33.44-13.37-65.75-36.92-89.88V102.31Z"/>
  <path class="cls-1" d="M194.62,83.85c-10.19,0-18.46,8.27-18.46,18.46v200.06c-24.88,7.89-43.08,30.93-43.08,58.4,0,33.94,27.61,61.54,61.54,61.54s61.54-27.6,61.54-61.54c0-27.47-18.2-50.5-43.08-58.4V102.31c0-10.19-8.27-18.46-18.46-18.46ZM219.24,360.77c0,13.58-11.05,24.62-24.62,24.62s-24.62-11.03-24.62-24.62,11.05-24.62,24.62-24.62,24.62,11.03,24.62,24.62Z"/>
  <path class="cls-1" d="M416.15,83.85h-73.83c-10.19,0-18.46,8.27-18.46,18.46s8.27,18.46,18.46,18.46h73.83c10.19,0,18.46-8.27,18.46-18.46s-8.27-18.46-18.46-18.46Z"/>
  <path class="cls-1" d="M391.53,157.69h-49.22c-10.19,0-18.46,8.27-18.46,18.46s8.27,18.46,18.46,18.46h49.22c10.19,0,18.46-8.27,18.46-18.46s-8.27-18.46-18.46-18.46Z"/>
  <path class="cls-1" d="M366.92,231.54h-24.6c-10.19,0-18.46,8.27-18.46,18.46s8.27,18.46,18.46,18.46h24.6c10.19,0,18.46-8.27,18.46-18.46s-8.27-18.46-18.46-18.46Z"/>
</svg>