<?xml version="1.0" encoding="UTF-8"?>
<svg id="Content" xmlns="http://www.w3.org/2000/svg" viewBox="0 0 500 500">
  <defs>
    <style>
      .cls-1 {
        stroke-width: 0px;
      }
    </style>
  </defs>
  <path class="cls-1" d="M424.98,161.56c-.6-.17-1.18-.03-1.78-.14,8.52-25.43,11.97-53.6,11.97-87.87,0-61.78-177.26-63.56-197.48-63.56s-197.48,1.78-197.48,63.56c0,11.02,5.82,20.06,15.2,27.59,18.02,27.93,52.13,90.26,55.23,165.37-61.36,10.58-92.82,29.01-92.82,55.07s29.53,43.39,86.94,54.14c2.27,27.05,10.27,50.29,24.14,69.35,27.67,38,68.29,44.47,70.02,44.74.89.12,1.78.19,2.69.19,4.76,0,9.38-1.85,12.84-5.22,4.13-3.99,6.18-9.69,5.53-15.38-.46-4.06-10.17-100.1,82.43-169.09,14.26-10.62,26.99-20.68,38.54-30.43,7.35-.6,14.81-1.05,21.97-1.88,79.11-9.38,119.23-29.28,119.23-59.16s-43.05-43.17-57.19-47.28ZM109.42,304.2c-.5,4.77-1.03,9.55-1.83,14.38-1.11,6.72-1.94,13.26-2.53,19.65-27.74-5.78-42.13-12.5-47.92-16.58,6.15-4.34,21.83-11.52,52.28-17.45ZM183.05,445.41c-15.71-8.77-34.61-27.23-40.21-63.93,7.17.78,14.68,1.48,22.85,2.06.43.02.87.05,1.32.05,9.59,0,17.69-7.43,18.39-17.16.72-10.17-6.92-18.99-17.12-19.71-9.63-.69-18.23-1.56-26.38-2.53.5-6.3.96-12.55,2.12-19.58,13.24-80.1-10.31-152.32-33.57-200.43,51.95,12.29,115.58,12.95,127.23,12.95,18.97,0,37.74-.72,55.75-2.16,10.17-.82,17.74-9.71,16.95-19.88-.84-10.17-9.83-17.26-19.88-16.95-17.04,1.37-34.81,2.07-52.81,2.07-90.75,0-144.98-16.27-158.46-26.63,13.49-10.36,67.72-26.63,158.46-26.63s144.64,16.18,158.34,26.54c-5.7,4.11-20.12,11.11-49.74,17.12-10,2.04-16.44,11.78-14.42,21.78,2.02,10,11.78,16.3,21.78,14.42,16.94-3.45,30.87-7.56,42.48-12.23-5.4,44.59-22.99,77.66-70.33,119.59-13.48.83-27.18,1.34-41.12,1.34-10.19,0-18.46,8.27-18.46,18.46,0,8.36,5.67,15.15,13.3,17.42-77.78,58.42-93.89,133.72-96.47,174.05ZM384.63,227.45c9.53-11.08,17.56-22.15,24.08-33.53,1.76,1.34,3.73,2.47,5.98,3.12,15.5,4.47,24.04,8.94,28.17,11.85-6.56,4.68-23.9,12.46-58.23,18.55Z"/>
</svg>