<?xml version="1.0" encoding="UTF-8"?>
<svg id="Content" xmlns="http://www.w3.org/2000/svg" viewBox="0 0 500 500">
  <defs>
    <style>
      .cls-1 {
        stroke-width: 0px;
      }
    </style>
  </defs>
  <path class="cls-1" d="M126.92,182.31h110.77c44.11,0,80-35.89,80-80s-35.89-80-80-80-80,35.89-80,80c0,10.19,8.27,18.46,18.46,18.46s18.46-8.27,18.46-18.46c0-23.75,19.33-43.08,43.08-43.08s43.08,19.33,43.08,43.08-19.33,43.08-43.08,43.08h-110.77c-10.19,0-18.46,8.27-18.46,18.46s8.27,18.46,18.46,18.46Z"/>
  <path class="cls-1" d="M28.46,280.77h172.31c10.19,0,18.46-8.27,18.46-18.46s-8.27-18.46-18.46-18.46H28.46c-10.19,0-18.46,8.27-18.46,18.46s8.27,18.46,18.46,18.46Z"/>
  <path class="cls-1" d="M410,120.77c-44.11,0-80,35.89-80,80,0,10.19,8.27,18.46,18.46,18.46s18.46-8.27,18.46-18.46c0-23.75,19.33-43.08,43.08-43.08s43.08,19.33,43.08,43.08-19.33,43.08-43.08,43.08h-146.73c-10.19,0-18.46,8.27-18.46,18.46s8.27,18.46,18.46,18.46h146.73c44.11,0,80-35.89,80-80s-35.89-80-80-80Z"/>
  <path class="cls-1" d="M28.46,182.31h24.62c10.19,0,18.46-8.27,18.46-18.46s-8.27-18.46-18.46-18.46h-24.62c-10.19,0-18.46,8.27-18.46,18.46s8.27,18.46,18.46,18.46Z"/>
  <path class="cls-1" d="M286.92,317.69h-135.38c-10.19,0-18.46,8.27-18.46,18.46s8.27,18.46,18.46,18.46h135.38c23.75,0,43.08,19.33,43.08,43.08s-19.33,43.08-43.08,43.08-43.08-19.33-43.08-43.08c0-10.19-8.27-18.46-18.46-18.46s-18.46,8.27-18.46,18.46c0,44.11,35.89,80,80,80s80-35.89,80-80-35.89-80-80-80Z"/>
  <path class="cls-1" d="M77.69,317.69H28.46c-10.19,0-18.46,8.27-18.46,18.46s8.27,18.46,18.46,18.46h49.23c10.19,0,18.46-8.27,18.46-18.46s-8.27-18.46-18.46-18.46Z"/>
</svg>