<?xml version="1.0" encoding="UTF-8"?>
<svg id="Layer_3" data-name="Layer 3" xmlns="http://www.w3.org/2000/svg" viewBox="0 0 500 500">
  <path d="M460.02,94.67l-22.42,22.43c-23.78,23.78-34.04,58.47-28.14,95.17,3.17,19.66-5.18,39.01-21.78,50.51-16.54,11.46-39.68,11.71-56.36.57-17.9-11.94-26.42-32.29-22.21-53.09,1.18-5.76-.63-11.73-4.79-15.89-4.15-4.16-10.07-5.95-15.9-4.8-20.73,4.21-41.14-4.28-53.07-22.2-11.11-16.67-10.88-39.83.56-56.36,11.86-17.1,31.76-25.34,51.85-21.54,35.13,6.56,69.25-2.88,93.91-26.27l23.54-23.09c6.92-6.79,7.03-17.9.23-24.83-6.78-6.91-17.89-7.02-24.83-.23l-23.32,22.89c-16.17,15.34-39.12,21.63-62.98,17.01-33.99-6.31-67.4,7.41-87.27,36.08-10.34,14.93-15.23,32.6-14.92,50.18-9.12,4.22-17.48,9.81-24.49,16.81-9.64,9.64-16.56,21.41-20.84,34.48-19.4-1.6-39.26,3.11-55.78,14.55-28.65,19.85-42.46,53.28-36.05,87.23,4.5,23.89-1.7,46.85-16.83,62.79l-23.09,23.55c-6.79,6.93-6.68,18.04.25,24.83,6.93,6.79,18.04,6.7,24.83-.23l23.29-23.76c23.19-24.44,32.69-58.58,26.06-93.68-3.8-20.17,4.46-40.04,21.55-51.88,16.51-11.43,39.68-11.66,56.38-.55,17.9,11.94,26.41,32.29,22.2,53.09-1.18,5.76.63,11.73,4.79,15.89,4.16,4.18,10.13,5.92,15.91,4.8,20.8-4.3,41.14,4.28,53.07,22.18,11.11,16.67,10.88,39.86-.56,56.36-11.51,16.62-30.9,24.95-50.5,21.81-36.8-5.9-71.42,4.32-95.19,28.12l-22.42,22.41c-6.86,6.86-6.86,17.97,0,24.83,3.43,3.43,7.92,5.14,12.42,5.14s8.99-1.71,12.42-5.14l22.42-22.41c15.71-15.73,39.32-22.29,64.77-18.29,33.06,5.33,65.66-8.64,84.95-36.45,11.45-16.53,16.18-36.4,14.58-55.8,13.03-4.28,24.8-11.18,34.44-20.82,7-7,12.58-15.35,16.81-24.46.52.01,1.03.11,1.55.11,17.07,0,34.16-5.03,48.65-15.09,27.83-19.25,41.8-51.81,36.46-84.95-4.09-25.43,2.57-49.05,18.29-64.76l22.42-22.43c6.86-6.86,6.86-17.97,0-24.83-6.86-6.86-17.97-6.86-24.83,0ZM315.84,306.25c-5.47,5.45-12.19,9.41-19.66,12.01-1.18-2.16-2.23-4.37-3.6-6.43-15.46-23.19-40.34-37.16-67.01-38.71-1.58-26.68-15.55-51.56-38.71-67-2.07-1.37-4.28-2.43-6.44-3.6,2.6-7.49,6.56-14.22,12.03-19.68,2.39-2.4,5.2-4.26,8.01-6.1,1.67,3.46,3.5,6.86,5.67,10.1,15.45,23.16,40.32,37.13,67,38.73,1.58,26.66,15.55,51.54,38.72,67,3.23,2.16,6.62,3.99,10.07,5.66-1.85,2.83-3.72,5.66-6.07,8.02Z" fill="#231f20" stroke-width="0"/>
</svg>