<?xml version="1.0" encoding="UTF-8"?>
<svg id="Layer_3" data-name="Layer 3" xmlns="http://www.w3.org/2000/svg" viewBox="0 0 500 500">
  <path d="M414.97,139.76c-7.12-45.21-56.22-80.33-115.53-80.33-3.88,0-7.68.18-11.44.5-17-16.12-39.38-25.22-62.71-25.22-35.1,0-66.67,20.3-81.89,51.06-5.6-1.07-11.27-1.62-16.97-1.62-44.87,0-83.23,33.45-90.22,77.36-16.73,17.13-26.2,40.02-26.2,63.77,0,49.18,38.89,89.43,87.53,91.62,19.71,30.05,59.45,49.53,103.03,49.53,6.18,0,12.24-.66,18.25-1.42.34.14.57.41.93.53l68.67,22.87,38.96,55.31c7.11,13.35,20.8,21.56,36.08,21.56,22.76,0,41.28-18.41,41.28-41.04,0-5.46-1.03-10.72-2.55-14.22l-9.71-30.67c41.06-15.5,69.24-53.36,72.17-97.63,15.63-15.61,25.35-35.05,25.35-56.44,0-38.51-30.22-72.23-75.03-85.52ZM128.07,299.3c31.49-46.45,61.25-35.12,64.88-33.47,1.34.65,2.76.79,4.16,1.08,6.65,3.84,14.15,6.65,22.52,8.12,1.03.18,2.05.27,3.06.27,8.36,0,15.77-5.99,17.28-14.52,1.68-9.56-4.7-18.66-14.26-20.33-8.54-1.51-14.55-4.94-18.4-10.5-7.18-10.4-6.06-26.87-5.02-32.36,1.86-9.47-4.28-18.68-13.75-20.6-9.52-1.9-18.77,4.25-20.69,13.74-.51,2.53-3.58,19.87,1.34,38.58-22.07,3.41-48.18,17.3-71.37,52.17-29.37-2.04-52.7-26.32-52.7-56.2,0-16,6.76-30.79,18.94-41.77,4.21-2.73,13.84-6.58,25.24,4.84,3.43,3.41,7.91,5.12,12.4,5.12s9-1.71,12.43-5.17c6.86-6.86,6.84-17.97-.02-24.83-11.77-11.73-24.02-16.43-35.28-17.48,9.91-16.11,27.38-26.72,47.59-26.72,7.09,0,14.17,1.39,21.04,4.16,4.66,1.9,9.89,1.67,14.37-.59,4.49-2.24,7.81-6.29,9.12-11.11,6.67-24.67,29.01-41.89,54.33-41.89,4.57,0,9.04.71,13.42,1.82-4.57,2.59-9.07,5.6-13.16,9.59-11.66,11.39-17.82,27-17.82,45.18,0,9.7,7.87,17.56,17.56,17.56s17.56-7.87,17.56-17.56c0-8.69,2.33-15.21,7.15-19.94,8.99-8.87,25.22-10.75,30.99-10.56.53,0,1.01-.25,1.54-.3.42-.03.81.2,1.23.14,5.1-.73,10.31-1.21,15.69-1.21,38.45,0,71.65,19.72,79.61,43.79-11.83,3.02-27.22,9.83-42.59,25.13-.95.95-1.44,2.12-2.13,3.2-13.79-5.56-29.16-5.83-44.92-.19-9.12,3.29-13.87,13.35-10.58,22.48,3.27,9.12,13.33,13.88,22.47,10.59,8.17-2.97,15.08-2.95,21.17-.05,11.4,5.46,18.6,20.3,20.43,25.56,2.47,7.34,9.29,11.96,16.63,11.96,1.83,0,3.7-.27,5.53-.89,9.2-3.06,14.19-13.01,11.14-22.2-.68-2.06-4.97-14.12-14.37-26.1,15.7-15.33,30.24-16.62,33.8-16.67,34.91,7.02,59.24,29.12,59.24,54.1,0,30.69-37.23,56.59-81.3,56.59-5.37,0-10.58-.48-15.67-1.21-5.84-.78-11.84,1.44-15.75,5.97-10.9,12.69-26.47,19.96-42.71,19.96-5,0-10.26-.89-16.53-2.84-6.07-1.85-12.63-.32-17.23,4.02-15.81,14.95-39.55,23.53-65.11,23.53-31.11,0-58.9-12.59-72.5-32.01ZM363.45,430.16c-2.29,0-4.24-1.19-5.21-3.2-.41-.85-.89-1.67-1.44-2.45l-43-61.05c-2.16-3.06-5.25-5.37-8.81-6.56l-32.49-10.82c3.26-2.05,6.71-3.9,9.7-6.24,21.37,4.48,41.2,1.03,58.4-8l12.73,40.23s0,.06,0,.08c.02.07.06.12.08.18l15.3,48.34c.15.48.71,3.11.9,3.57,0,2.49-2.14,5.92-6.16,5.92ZM381.91,345.98l-9.18-29.02c.29,0,.56.04.85.04,17.35,0,33.68-3.21,48.49-8.59-8.24,16.82-22.3,30.31-40.15,37.57Z" fill="#231f20" stroke-width="0"/>
</svg>