<?xml version="1.0" encoding="UTF-8"?>
<svg id="Layer_3" data-name="Layer 3" xmlns="http://www.w3.org/2000/svg" viewBox="0 0 500 500">
  <path d="M109.91,146.67c9.19,3.08,19.15-1.91,22.22-11.11,10.58-31.73,59.94-109.15,160.39-86.27,67.21,15.29,73.77,97.54,74.41,113.86,1.62,43.12-27.12,92.04-51.52,125.5-25.98,35.58-27.81,44.32-31.4,75.56-.75,6.52-1.62,14.25-3,23.85l-.64,4.51c-4.62,32.34-29.27,58.34-58.65,61.84-19.79,2.31-38.84-3.56-53.59-16.65-14.54-12.92-22.88-31.47-22.88-50.9,0-9.7-7.87-17.56-17.56-17.56s-17.56,7.87-17.56,17.56c0,29.47,12.63,57.58,34.68,77.16,18.95,16.83,43.46,26,68.72,26,4.1,0,8.22-.24,12.34-.73,45.64-5.42,82.36-43.15,89.27-91.77l.64-4.51c1.44-9.97,2.36-18.01,3.13-24.78,3-26.07,3.38-29.41,24.86-58.87,27.69-37.94,60.28-94.34,58.25-147.53-2.33-60.3-30.28-130.53-101.72-146.78C187.78-10.48,118.14,66.46,98.81,124.45c-3.06,9.2,1.91,19.15,11.1,22.22Z" fill="#231f20" stroke-width="0"/>
  <path d="M164.38,308.13c-9.7,0-17.56,7.87-17.56,17.56s7.87,17.56,17.56,17.56c36.66,0,66.49-29.82,66.49-66.48,0-30.59-20.76-56.42-48.93-64.13v-2.29c0-15.57,6.07-30.22,17.08-41.23l12.49-12.49c17.81-17.8,44.91-22.15,67.3-10.92,8.8,4.36,19.25.81,23.58-7.86,4.34-8.67.82-19.22-7.84-23.57-36.03-18.03-79.4-10.99-107.87,17.49l-12.5,12.49c-17.64,17.67-27.36,41.13-27.36,66.08v17.49c0,9.7,7.87,17.56,17.56,17.56,17.29,0,31.36,14.06,31.36,31.36s-14.08,31.35-31.36,31.35Z" fill="#231f20" stroke-width="0"/>
</svg>