<?xml version="1.0" encoding="UTF-8"?>
<svg id="Layer_3" data-name="Layer 3" xmlns="http://www.w3.org/2000/svg" viewBox="0 0 500 500">
  <path d="M250,393.32c50.67,0,101.37-16.92,143.65-50.74l80.71-64.57c10.34-8.28,16.02-20.59,15.62-33.84-.42-13.23-6.88-25.2-17.76-32.8l-90.35-63.25c-78.85-55.23-184.89-55.23-263.74,0l-90.35,63.25c-10.86,7.6-17.34,19.55-17.76,32.78-.42,13.25,5.28,25.59,15.62,33.87l80.71,64.57c42.28,33.82,92.98,50.74,143.65,50.74ZM145.86,247.18c0-57.41,46.72-104.14,104.14-104.14s104.14,46.72,104.14,104.14-46.72,104.14-104.14,104.14-104.14-46.72-104.14-104.14ZM451.74,240.6c2.14,1.49,2.51,3.58,2.53,4.7.05,1.09-.21,3.21-2.23,4.81l-78.81,63.06c10.58-19.67,16.61-42.13,16.61-65.99,0-21.21-4.89-41.26-13.38-59.29l75.28,52.71ZM45.7,245.27c.05-1.09.42-3.18,2.53-4.67l75.3-52.71c-8.49,18.03-13.38,38.08-13.38,59.29,0,23.85,6.03,46.32,16.61,65.99l-78.81-63.06c-2.05-1.63-2.28-3.72-2.25-4.83Z" fill="#231f20" stroke-width="0"/>
</svg>