<?xml version="1.0" encoding="UTF-8"?>
<svg id="Layer_3" data-name="Layer 3" xmlns="http://www.w3.org/2000/svg" viewBox="0 0 500 500">
  <path d="M292.67,11.15c-62.33-5.62-113.37,9.42-152.08,44.75-40.93,37.39-65.02,97.41-66.63,165.55l-25.18,25.2c-10.7,10.7-15.65,26-13.23,40.95,2.42,14.95,11.96,27.92,25.52,34.69l12.8,6.4v41.41c0,33.41,27.16,60.57,60.56,60.57h28.46v41.78c0,9.7,7.87,17.56,17.56,17.56s17.56-7.87,17.56-17.56v-59.34c0-9.7-7.87-17.56-17.56-17.56h-46.02c-14.03,0-25.44-11.41-25.44-25.45v-52.27c0-6.65-3.76-12.74-9.72-15.71l-22.51-11.25c-3.53-1.76-5.91-5.01-6.55-8.89-.63-3.89.61-7.71,3.41-10.5l30.23-30.25c3.28-3.29,5.13-7.75,5.13-12.42,0-61.33,20.16-114.9,55.29-146.98,31.11-28.4,73.23-40.38,125.19-35.69,78.77,7.16,140.46,80.4,140.46,166.74,0,30.43-8.92,59.93-26.73,86.64-21.36,32.01-32.63,69.28-32.63,107.74l.02,65.19c0,9.7,7.87,17.56,17.56,17.56s17.56-7.87,17.56-17.56l-.02-65.19c0-31.51,9.24-62.03,27.64-89.61,20.74-31.14,31.71-67.38,31.71-104.77,0-104.31-75.73-192.94-172.38-201.72Z" fill="#231f20" stroke-width="0"/>
</svg>