<?xml version="1.0" encoding="UTF-8"?>
<svg id="Layer_3" data-name="Layer 3" xmlns="http://www.w3.org/2000/svg" viewBox="0 0 500 500">
  <path d="M362.73,96.67c4.93-1.53,8.93-5.14,10.95-9.88,2.02-4.74,1.85-10.13-.45-14.75l-26.16-52.34c-2.97-5.95-9.05-9.71-15.71-9.71-64.71,0-102.51,49.35-123.77,95.17-6.46-11.82-8.66-28.52-8.88-34.67-.22-7.58-5.28-14.15-12.54-16.31l-56.08-16.69c-7.84-2.32-16.26,1.05-20.29,8.19-27.71,49.01,3.55,113.88,17.65,138.6-14.48,23.06-23.01,50-23.01,78.8,0,38.62,14.73,75.06,41.52,102.92,27.63,44.17,63.66,81.28,106.65,110.02.24.17,2.32,1.65,2.57,1.81,12.47,7.97,26.7,12.18,41.1,12.18,28.33,0,53.8-15.75,66.48-41.11,25.19-50.36,38.49-106.74,38.49-163.03v-22.77c0-57.77-33.35-109.2-84.31-133.44,21.05-24.43,44.5-32.55,45.77-32.97ZM135.47,75.74l29.38,8.73c1.87,12.92,7.06,32.38,18.97,47.41-11.9,6.21-22.64,14.02-32.24,22.97-10.9-22.14-22.04-53.93-16.11-79.12ZM366.15,263.08v22.77c0,50.88-12.03,101.82-34.79,147.32-6.69,13.39-20.12,21.7-35.06,21.7-7.71,0-15.38-2.31-21.47-6.16-.14-.1-2.1-1.5-2.25-1.6-38.83-25.96-71.11-59.07-95.99-98.41-.88-2.01-2.13-3.84-3.68-5.4-21.49-21.49-33.33-49.98-33.33-80.22,0-36.63,17.38-69.78,45.46-90.66-1.11,5.09-1.68,8.4-1.83,9.27-1.59,9.57,4.86,18.6,14.42,20.2,9.46,1.52,18.61-4.85,20.22-14.41.23-1.36,23.05-131.1,103.01-141.68l12.83,25.64c-20.34,11.1-52.39,34.84-70.91,80.33-9.11,22.36-13.77,64.44-8.84,98.7-5.2,10.26-29.23,34.35-49.44,51.57-7.37,6.3-8.25,17.38-1.97,24.75,3.48,4.08,8.41,6.17,13.38,6.17,4.02,0,8.07-1.38,11.38-4.2,5.31-4.52,24.38-21.12,39.89-38.28,10.61,17.16,12.14,38.8,3.55,57.14l-7.61,16.29c-4.1,8.78-.31,19.23,8.48,23.35,2.4,1.12,4.93,1.65,7.42,1.65,6.61,0,12.94-3.74,15.93-10.13l7.6-16.28c14.03-29.98,11.34-65.72-7.02-93.27-12.54-18.82-10.85-78.18-.23-104.22.81-1.98,1.83-3.55,2.7-5.42,41.02,17.66,68.15,57.94,68.15,103.47Z" fill="#231f20" stroke-width="0"/>
</svg>