<?xml version="1.0" encoding="UTF-8"?>
<svg id="Layer_3" data-name="Layer 3" xmlns="http://www.w3.org/2000/svg" viewBox="0 0 500 500">
  <path d="M404.06,352.61c-23.25-4.96-53.53-19.46-82.79-33.47-16.58-7.91-32.95-15.73-48.02-21.9-11.11-4.55-18.29-15.27-18.29-27.35V27.59c0-9.69-7.87-17.56-17.56-17.56s-17.56,7.87-17.56,17.56v242.3c0,26.39,15.73,49.87,40.1,59.86,14.52,5.92,30.23,13.47,46.16,21.08,31.12,14.88,63.29,30.3,90.59,36.13,12.71,2.72,37.45,17.24,37.45,34.16,0,18.61-15.16,33.77-33.77,33.77H134.01c-22.06-.21-41.41-11.96-51.74-31.46-10.31-19.48-9.17-42.07,3.06-60.43l11.8-17.67c1.92-2.88,2.95-6.26,2.95-9.74v-59.77c-.07-44.38-4.96-91.32-15.39-147.7l-19.14-103.69c-1.76-9.53-10.86-15.96-20.44-14.08-9.56,1.76-15.85,10.91-14.08,20.44l19.14,103.71c10.04,54.26,14.72,99.19,14.79,142.22v53.55l-8.85,13.26c-19.5,29.24-21.33,65.28-4.87,96.35,16.46,31.07,47.28,49.82,82.61,50.14h266.53c37.98,0,68.89-30.91,68.89-68.89s-38.92-62.88-65.21-68.5Z" fill="#231f20" stroke-width="0"/>
  <path d="M179.76,384.64c9.69,0,17.56-7.87,17.56-17.56s-7.87-17.56-17.56-17.56-17.56-7.89-17.56-17.56-7.87-17.56-17.56-17.56-17.56,7.87-17.56,17.56c0,29.04,23.64,52.68,52.68,52.68Z" fill="#231f20" stroke-width="0"/>
</svg>