<?xml version="1.0" encoding="UTF-8"?>
<svg id="Layer_3" data-name="Layer 3" xmlns="http://www.w3.org/2000/svg" viewBox="0 0 500 500">
  <path d="M429.47,91.45h-230.33c-50.62,0-100.79,16.75-141.22,47.16-30.02,22.55-47.93,58.42-47.93,95.97v156.41c0,9.7,7.87,17.56,17.56,17.56,29.95,0,58.67-11.1,80.81-31.26l2.47-2.25,30.3,11.21c18.75,6.93,38.44,10.37,58.1,10.37,26.18,0,52.29-6.11,76.01-18.16,38.83-19.74,68.35-54.16,82.43-95.17,42.07-15.78,79.77-42.81,107.72-78.88l11.89-15.37c8.21-10.54,12.71-23.71,12.71-37.09,0-33.37-27.14-60.51-60.53-60.51ZM45.12,371.6v-137.02c0-26.56,12.67-51.94,33.91-67.89,34.39-25.87,77.06-40.12,120.11-40.12h82.77v81.73c0,46.83-38.12,84.94-86.91,84.94-29.95,0-58.67,11.1-80.81,31.26l-29.47,26.82c-11.27,10.26-24.92,17.2-39.6,20.28ZM259.33,347.17c-33.29,16.92-70.93,19.14-105.98,6.14l-12.92-4.78c15.31-12.9,34.57-20.17,56.55-20.17,29.86,0,56.86-11.35,77.89-29.45,13.14-.14,26.12-1.62,38.94-3.87-12.64,22.07-31.07,40.23-54.48,52.13ZM449.55,167.52l-11.91,15.38c-32.75,42.26-81.08,70-133.38,78.23,7.92-16.01,12.79-33.78,12.79-52.82v-81.73h112.43c14.02,0,25.4,11.39,25.4,25.39,0,5.61-1.9,11.14-5.33,15.56Z" fill="#231f20" stroke-width="0"/>
</svg>