<?xml version="1.0" encoding="UTF-8"?>
<svg id="Layer_3" data-name="Layer 3" xmlns="http://www.w3.org/2000/svg" viewBox="0 0 500 500">
  <path d="M111.45,440.44c2.97,0,5.99-.1,9.06-.33,38.65-2.79,65.26-16.66,79.06-41.21,17.84-31.7,8.53-73.51-6.11-102.06-5.13-10.01-6.39-20.23-5.56-31.16.83-.38,1.69-.64,2.48-1.16l60.06-40.04,60.06,40.04c.91.6,1.89.93,2.86,1.34.2,10.08-1.45,19.56-6.49,28.73-15.46,28.11-25.92,69.64-8.99,101.83,13.1,24.93,39.29,39.55,77.85,43.43,4.22.43,8.35.64,12.39.64,39.09,0,69.61-19.77,86.73-56.57,31.05-66.74,12.21-183.76-36.61-231.11-32.57-35.62-74.18-48.37-106-32.53-26.26,13.07-38.75,41.92-32.57,75.28,1.47,7.98,3.37,15.68,5.23,23.33l-37.03-24.69v-117.26c0-9.62-7.81-17.43-17.43-17.43s-17.43,7.81-17.43,17.43v117.26l-34.41,22.94c1.7-6.3,3.46-12.56,4.86-19.08,7.1-33.17-4.54-62.36-30.44-76.17-31.32-16.73-73.29-5.18-106.11,28.78C16,197.34-6.15,313.78,22.99,381.39c16.55,38.34,47.73,59.05,88.45,59.05ZM347.78,151.49c13.3-6.63,38.27-4.1,65.44,25.58,35.16,34.13,56.43,135.37,30.01,192.14-12.67,27.26-33.57,39-64.01,35.97-26.17-2.64-43.17-11.04-50.5-24.97-11.24-21.38.18-53.33,8.69-68.83,17.98-32.72,10.06-64.95,2.41-96.1-2.09-8.48-4.22-17.15-5.88-26.05-3.27-17.69,1.91-31.79,13.85-37.74ZM91.2,175.63c18.95-19.59,36.82-26.43,50.37-26.43,5.92,0,11.03,1.32,15.03,3.44,11.76,6.28,16.52,20.53,12.76,38.11-1.88,8.85-4.27,17.44-6.58,25.84-8.53,30.95-17.36,62.94-.32,96.16,8.06,15.74,18.57,48.01,6.72,69.06-7.72,13.71-24.92,21.63-51.16,23.53-30.8,2.27-51.09-10.17-62.99-37.76-24.81-57.49-.68-158.1,36.18-191.95Z" fill="#231f20" stroke-width="0"/>
</svg>