<?xml version="1.0" encoding="UTF-8"?>
<svg id="Layer_3" data-name="Layer 3" xmlns="http://www.w3.org/2000/svg" viewBox="0 0 500 500">
  <path d="M107,391.33c-34.12,0-61.88-27.76-61.88-61.9,0-16.51,6.43-32.06,18.11-43.74,52.68-52.66,68.69-123.13,72.83-172.96l4.32-51.93c.82-9.67-6.38-18.16-16.03-18.96-9.44-.71-18.16,6.36-18.96,16.03l-4.32,51.93c-3.68,43.99-17.52,105.89-62.68,151.05-18.32,18.34-28.4,42.69-28.4,68.57,0,53.51,43.51,97.02,97,97.02,9.7,0,17.56-7.87,17.56-17.56s-7.87-17.56-17.56-17.56Z" fill="#231f20" stroke-width="0"/>
  <path d="M398.93,109.83l-4.34-51.95c-.8-9.67-9.51-16.78-18.96-16.03-9.67.8-16.85,9.28-16.03,18.96l4.34,51.95c4.14,49.8,20.14,120.25,72.8,172.93,11.71,11.68,18.13,27.21,18.13,43.74,0,34.14-27.76,61.9-61.88,61.9-9.7,0-17.56,7.87-17.56,17.56s7.87,17.56,17.56,17.56c53.48,0,97-43.51,97-97.02,0-25.93-10.11-50.28-28.42-68.57-45.14-45.16-58.97-107.06-62.65-151.03Z" fill="#231f20" stroke-width="0"/>
  <path d="M377.11,327.76c-9.7,0-17.56,7.87-17.56,17.56,0,43.79-58.88,77.77-109.55,77.77s-109.55-33.98-109.55-77.77c0-9.7-7.87-17.56-17.56-17.56s-17.56,7.87-17.56,17.56c0,66.52,76.23,112.89,144.67,112.89s144.67-46.37,144.67-112.89c0-9.7-7.87-17.56-17.56-17.56Z" fill="#231f20" stroke-width="0"/>
</svg>