<?xml version="1.0" encoding="UTF-8"?>
<svg id="Layer_3" data-name="Layer 3" xmlns="http://www.w3.org/2000/svg" viewBox="0 0 500 500">
  <path d="M10.2,170.55c-3.13,54.01,31.57,124.92,82.72,138.98,5.73,1.55,12.42,6.2,12.42,14.09v4.14c0,47.49,29.03,77.76,80.28,86.56v32.21c0,22.59,18.38,40.98,40.98,40.98h46.83c22.59,0,40.98-18.38,40.98-40.98v-32.21c51.25-8.8,80.28-39.06,80.28-86.56v-4.14c0-7.89,6.69-12.53,12.43-14.09,51.14-14.06,85.84-84.97,82.71-139-3.46-59.54-55.3-106.19-118.01-106.19-19.48,0-38.73,2.72-57.4,7.63v-18.49c0-22.59-18.38-40.98-40.98-40.98h-46.83c-22.59,0-40.98,18.38-40.98,40.98v18.49c-18.67-4.91-37.93-7.63-57.42-7.63-62.71,0-114.53,46.65-118,106.21ZM279.27,446.52c0,3.22-2.63,5.85-5.85,5.85h-46.83c-3.22,0-5.85-2.63-5.85-5.85v-29.27h58.54v29.27ZM256.35,309.87h-10.69c-28.91,0-47.57-20.67-58.12-37.98-6.32-10.38-17.37-17.9-30.15-26.59-29.19-19.85-47.9-35.21-42.24-66.56.67-3.77,5.97-9.03,13.06-9.03,19.09,0,37.9,4.53,54.87,13.19l1.02,14.02c1.53,21.33,19.48,38.03,40.86,38.03h50.12c21.37,0,39.32-16.69,40.87-37.98l1.03-14.06c16.95-8.67,35.74-13.19,54.83-13.19,7.09,0,12.39,5.26,13.07,9.03,5.66,31.33-13.04,46.69-42.23,66.54-12.78,8.71-23.83,16.21-30.16,26.59-8.64,14.2-27.44,38-56.12,38ZM220.73,53.48c0-3.18,2.68-5.85,5.85-5.85h46.83c3.18,0,5.85,2.68,5.85,5.85v30.88c-8.41,3.78-16.69,7.9-24.63,12.7l-4.64,2.81-4.64-2.81c-7.94-4.81-16.22-8.93-24.63-12.7v-30.88ZM128.19,99.46c34.88,0,69.11,9.56,98.97,27.64l13.73,8.32c5.58,3.38,12.6,3.38,18.2,0l13.74-8.32c29.86-18.09,64.08-27.64,98.96-27.64,43.39,0,80.6,32.79,82.95,73.1,2.24,38.73-23.6,93.91-56.95,103.08-22.88,6.29-38.25,25.56-38.25,47.97v4.14c0,36.08-26.17,54.37-77.78,54.37h-14.21v-37.94c29.45-3.82,55.75-22.61,74.91-54.02,2.37-3.91,11.7-10.24,19.92-15.85,26.75-18.2,67.17-45.71,57.05-101.8-3.9-21.63-24.37-37.93-47.64-37.93-28.46,0-56.39,7.8-80.76,22.57-4.86,2.95-8,8.07-8.41,13.74l-1.71,23.51c-.22,3.04-2.79,5.42-5.84,5.42h-50.12c-3.05,0-5.61-2.38-5.83-5.44l-1.7-23.48c-.41-5.67-3.56-10.79-8.43-13.74-24.39-14.77-52.32-22.57-80.78-22.57-23.25,0-43.73,16.3-47.63,37.93-10.12,56.11,30.31,83.62,57.06,101.82,8.22,5.6,17.54,11.94,19.9,15.8,18.81,30.89,45.06,49.64,74.91,53.91v38.08h-14.21c-51.61,0-77.78-18.29-77.78-54.37v-4.14c0-22.41-15.38-41.68-38.24-47.97-33.36-9.17-59.2-64.34-56.96-103.06,2.34-40.34,39.56-73.12,82.95-73.12Z" fill="#231f20" stroke-width="0"/>
</svg>