<?xml version="1.0" encoding="UTF-8"?>
<svg id="Layer_3" data-name="Layer 3" xmlns="http://www.w3.org/2000/svg" viewBox="0 0 500 500">
  <path d="M455.07,261.36c8.81-15.03,13.6-32.28,12.9-49.94-.99-24.99-12.36-48.56-30.95-64.99,1.92-13.29-.23-26.78-6.57-38.96-8.16-15.69-21.97-27.12-38.92-32.2l-26.22-7.85c.57-4.04.85-8.17.48-12.36-1.67-18.68-12.67-34.82-29.45-43.22-8.67-4.3-19.21-.82-23.55,7.87-4.34,8.67-.82,19.21,7.87,23.55s9.88,11.82,10.15,14.91c.25,3.09.09,10.88-7.39,16.44l-10.31,7.69c-6.55-13.84-17.53-25.41-31.86-32.59-19.57-9.79-42.94-9.79-62.52,0-14.33,7.18-25.31,18.75-31.86,32.59l-10.32-7.69c-7.48-5.58-7.64-13.38-7.36-16.46s1.81-10.72,10.14-14.89c8.68-4.34,12.19-14.89,7.85-23.55-4.32-8.69-14.87-12.19-23.56-7.87-16.76,8.39-27.76,24.54-29.42,43.19-.37,4.2-.1,8.33.47,12.38l-26.24,7.86c-16.94,5.08-30.75,16.51-38.91,32.2-6.34,12.18-8.48,25.68-6.56,38.96-18.64,16.53-29.99,40.06-30.96,65.01-.69,17.66,4.09,34.9,12.89,49.92-27.22,31.1-27.36,76.14-2.05,107.51l-10.38,24.63c-7.82,18.59-7.55,39.74.74,58.01,7.64,16.85,21.17,29.25,38.17,34.89,7.2,2.38,14.69,3.59,22.26,3.59,21.56,0,41.66-9.65,55.12-26.48l85.68-107.1c4.91,1.71,10.12,2.74,15.54,2.74s10.62-1.03,15.53-2.74l85.68,107.1c13.47,16.83,33.57,26.48,55.13,26.48,7.55,0,15.02-1.21,22.32-3.59,16.94-5.65,30.5-18.04,38.14-34.89,8.28-18.29,8.53-39.44.71-58.01l-10.37-24.63c25.32-31.37,25.2-76.43-2.06-107.51ZM421.14,180.42c7.17,9.22,11.27,20.39,11.73,32.4.64,15.96-5.24,30.98-16.58,42.28-10.52,10.56-25.11,16.6-40.04,16.6h-72.38l9.94-69.56h59.15c18.87,0,36.14-8.26,48.17-21.72ZM297.24,318.19l1.72-12.05c1.13.23,2.18.68,3.38.68h73.93c19.9,0,39.21-6.93,55.01-18.8,14.27,19.57,12.33,46.67-5.55,63.78-13.81,13.17-34.16,17.04-51.77,9.99l-80.11-32.03c1.55-3.67,2.81-7.49,3.4-11.58ZM344.41,102.79c1.49-1.11,2.57-2.55,3.92-3.78l33.15,9.93c7.75,2.31,14.09,7.55,17.81,14.73,3.75,7.2,4.39,15.39,1.85,23.05-4.07,12.14-15.39,20.3-28.17,20.3h-54.13l.88-6.13c.11-.82.18-1.67.18-2.49v-37.33l24.51-18.28ZM74.28,351.8c-17.89-17.1-19.84-44.18-5.57-63.75,15.83,11.97,34.82,18.77,55.01,18.77h73.94c1.19,0,2.23-.45,3.36-.68l1.72,12.04c.59,4.09,1.85,7.91,3.4,11.58l-80.1,32.03c-17.69,7.04-37.99,3.16-51.76-9.99ZM127.02,202.14h59.14l9.93,69.56h-72.37c-15.13,0-29.35-5.9-40.06-16.6-11.3-11.3-17.17-26.32-16.54-42.28.46-11.9,4.5-22.96,11.78-32.34,12.02,13.42,29.27,21.66,48.13,21.66ZM100.71,123.67c3.73-7.18,10.05-12.42,17.81-14.73l33.15-9.92c1.34,1.23,2.43,2.67,3.91,3.77l24.52,18.28v37.33c0,.82.06,1.67.17,2.49l.87,6.13h-54.12c-12.79,0-24.1-8.14-28.15-20.28-2.56-7.68-1.91-15.87,1.83-23.07ZM121.36,441.57c-9.15,11.46-25.11,16.05-38.92,11.5-7.56-2.52-13.67-8.21-17.23-16.05-4.2-9.26-4.33-20.44-.35-29.89l6.55-15.54c11.47,5.56,23.93,8.77,36.64,8.77,10.46,0,21-1.94,31.04-5.97l29.43-11.77-47.15,58.94ZM250,324.04c-6.24,0-11.6-4.66-12.48-10.84l-22.29-156.06v-44.89c0-13.26,7.37-25.2,19.22-31.12,9.74-4.85,21.37-4.85,31.11,0,11.87,5.95,19.23,17.86,19.23,31.12v44.89l-22.31,156.06c-.88,6.17-6.24,10.84-12.47,10.84ZM434.78,437.02c-3.54,7.84-9.67,13.54-17.17,16.03-14.04,4.66-29.84-.02-38.96-11.48l-47.16-58.94,29.44,11.77c10.04,4.02,20.58,5.97,31.05,5.97,12.7,0,25.14-3.21,36.61-8.76l6.54,15.53c3.98,9.44,3.86,20.63-.34,29.89Z" fill="#231f20" stroke-width="0"/>
</svg>