<?xml version="1.0" encoding="UTF-8"?>
<svg id="Layer_3" data-name="Layer 3" xmlns="http://www.w3.org/2000/svg" viewBox="0 0 500 500">
  <path d="M410,134.45h-90.3c-5.46,0-10.62,2.5-13.98,6.81-3.38,4.31-4.58,9.91-3.29,15.21l19.54,79.44c4.91,19.91,5.07,39.24.53,55.9-9.17,33.68-32.87,50.05-72.5,50.05s-63.4-16.34-72.66-50c-4.58-16.67-4.49-35.93.32-55.74l18.75-77.82c1.25-5.23.07-10.76-3.22-15.02s-8.31-6.81-13.7-6.92l-89.49-1.9c-39.21,0-71.11,31.9-71.11,71.11v213.33c0,39.21,31.9,71.11,71.11,71.11h319.99c39.21,0,71.11-31.9,71.11-71.11v-213.33c0-39.21-31.9-71.11-71.11-71.11ZM445.55,418.89c0,19.61-15.95,35.55-35.55,35.55H90c-19.61,0-35.55-15.95-35.55-35.55v-213.33c0-19.61,15.95-35.55,35.18-35.55l67.04,1.44-13.56,56.32c-6.23,25.65-6.23,51.09-.02,73.54,13.5,49.07,51.48,76.11,106.92,76.11s93.42-27.08,106.8-76.25c6.23-22.8,6.11-47.61-.3-73.73l-14.12-57.43h67.61c19.61,0,35.55,15.95,35.55,35.55v213.33Z" fill="#231f20" stroke-width="0"/>
  <path d="M375.88,43.97c8.12-3.68,12.25-12.82,9.65-21.37-2.62-8.54-11.34-13.82-19.93-12.36-154.88,25.83-162.52,231.2-162.68,238.61l-1.44,13.96c-1.67,14.65,3.47,29.14,14.12,39.77,9.26,9.26,21.5,14.31,34.05,14.31,1.78,0,3.59-.09,5.39-.3,12.96-1.37,24.63-7.69,32.85-17.8s11.99-22.85,10.65-35.79l-1.46-14.14c-.09-.86-.23-1.69-.44-2.52-36.97-146.62,74.51-200.18,79.23-202.36ZM260.3,276.37c-2.25,2.75-5.42,4.47-9.17,4.86-3.77.39-7.57-.95-10.42-3.84-2.92-2.89-4.35-6.76-3.89-10.74l1.55-15.44c.02-.88,1.62-42.75,16.85-88.7-3.31,26.41-1.94,56.71,6.62,91.25l1.32,12.92c.37,3.52-.65,6.94-2.87,9.7Z" fill="#231f20" stroke-width="0"/>
</svg>