<?xml version="1.0" encoding="UTF-8"?>
<svg id="Layer_3" data-name="Layer 3" xmlns="http://www.w3.org/2000/svg" viewBox="0 0 500 500">
  <path d="M250,10C117.67,10,10,114.66,10,244.6c.28,42.39,21.67,81.8,56.18,105.52,3.83,28.83,25.71,52.33,54.59,59.46v35.9c0,24.54,20.71,44.52,46.15,44.52h166.15c25.46,0,46.15-19.98,46.15-44.52v-35.9c28.89-7.12,50.76-30.64,54.59-59.46,34.48-23.72,55.89-63.22,56.18-106.81,0-128.64-107.67-233.31-240-233.31ZM434.62,299.06v-10.51c0-10.19-8.27-18.46-18.46-18.46s-18.46,8.27-18.46,18.46v52.68c0,18.56-16.56,33.67-36.92,33.67-10.19,0-18.46,8.27-18.46,18.46v52.13c0,4.12-4.23,7.6-9.23,7.6h-14.98v-30.77c0-10.19-8.27-18.46-18.46-18.46s-18.46,8.27-18.46,18.46v30.77h-12.3v-30.77c0-10.19-8.27-18.46-18.46-18.46s-18.46,8.27-18.46,18.46v30.77h-12.31v-30.77c0-10.19-8.27-18.46-18.46-18.46s-18.46,8.27-18.46,18.46v30.77h-15.81c-5,0-9.23-3.47-9.23-7.6v-52.13c0-10.19-8.27-18.46-18.46-18.46-20.36,0-36.92-15.11-36.92-33.67v-52.68c0-10.19-8.27-18.46-18.46-18.46s-18.46,8.27-18.46,18.46v10.45c-11.61-15.67-18.33-35.03-18.46-55.69,0-108.28,91.11-196.38,203.08-196.38s203.08,88.1,203.08,197.43c-.13,20.02-6.86,39.13-18.46,54.71Z" fill="#231f20" stroke-width="0"/>
  <ellipse cx="171.23" cy="213.08" rx="44.31" ry="55.38" fill="#231f20" stroke-width="0"/>
  <ellipse cx="328.77" cy="213.08" rx="44.31" ry="55.38" fill="#231f20" stroke-width="0"/>
  <path d="M260.32,290.1c-4.89-7.34-15.65-7.36-20.49.01-7.5,11.43-17.77,27.05-25.83,39.25-5.41,8.19.38,19.1,10.19,19.1h46.4c15.55,0,21.34-10.96,15.88-19.14l-26.15-39.22Z" fill="#231f20" stroke-width="0"/>
</svg>