<?xml version="1.0" encoding="UTF-8"?>
<svg id="Layer_3" data-name="Layer 3" xmlns="http://www.w3.org/2000/svg" viewBox="0 0 500 500">
  <path d="M463.05,198.67l4.69-4.69c16.28-16.28,16.28-42.78,0-59.06l-102.66-102.66c-15.78-15.78-43.3-15.78-59.05,0l-4.69,4.69-21.81-21.81c-6.86-6.86-17.97-6.86-24.83,0-6.86,6.86-6.86,17.97,0,24.83l21.8,21.8-4.7,4.7c-11.83,11.83-14.95,29.03-9.59,43.8l-32.36,32.36c-14.78-5.04-32.22-2-43.6,9.39l-4.69,4.69-21.81-21.81c-6.86-6.86-17.97-6.86-24.83,0s-6.86,17.97,0,24.83l21.81,21.81-4.69,4.69c-7.89,7.89-12.23,18.37-12.23,29.53,0,4.97.99,9.75,2.64,14.28l-32.16,32.16c-14.77-5.35-31.97-2.23-43.8,9.58l-4.7,4.7-21.8-21.8c-6.86-6.86-17.97-6.86-24.83,0s-6.86,17.97,0,24.83l21.81,21.81-4.68,4.68c-7.9,7.89-12.24,18.37-12.24,29.53s4.34,21.64,12.23,29.53l102.66,102.66c8.14,8.14,18.84,12.21,29.53,12.21s21.39-4.07,29.53-12.21l4.69-4.69,21.8,21.8c3.43,3.43,7.92,5.14,12.42,5.14s8.99-1.71,12.42-5.14c6.86-6.86,6.86-17.97,0-24.83l-21.8-21.8,4.7-4.7c11.82-11.82,14.95-29.02,9.58-43.8l32.16-32.16c4.53,1.65,9.31,2.64,14.28,2.64,11.16,0,21.64-4.34,29.53-12.23l4.69-4.69,21.81,21.81c3.43,3.43,7.92,5.14,12.42,5.14s8.99-1.71,12.42-5.14c6.86-6.86,6.86-17.97,0-24.83l-21.81-21.81,4.69-4.69c7.89-7.89,12.23-18.37,12.23-29.53,0-4.97-.99-9.75-2.64-14.28l32.16-32.16c4.61,1.67,9.43,2.63,14.28,2.63,10.69,0,21.38-4.07,29.52-12.21l4.7-4.7,21.8,21.8c3.43,3.43,7.92,5.14,12.42,5.14s8.99-1.71,12.42-5.14c6.86-6.86,6.86-17.97,0-24.83l-21.8-21.8ZM159.75,442.91l-102.66-102.66c-1.69-1.69-1.94-3.67-1.94-4.7s.25-3,1.94-4.69l34.22-34.23c1.29-1.29,3-1.94,4.69-1.94s3.41.65,4.7,1.94l102.66,102.66c2.6,2.6,2.6,6.81.01,9.4l-34.22,34.22c-2.58,2.58-6.81,2.58-9.4,0ZM215.78,362.05l-77.84-77.84,26.5-26.5,77.84,77.84-26.5,26.5ZM279.54,323.15s-.01-.01-.01-.01l-102.67-102.67h-.01c-1.68-1.69-1.93-3.67-1.93-4.69s.25-3.01,1.94-4.7l34.22-34.22c1.69-1.69,3.67-1.94,4.7-1.94s3,.25,4.69,1.94l102.67,102.67h.01c1.68,1.69,1.93,3.67,1.93,4.69s-.25,3.01-1.94,4.7l-34.22,34.22c-3.36,3.35-6.01,3.38-9.38.01ZM335.55,242.28l-77.84-77.84,26.5-26.5,77.84,77.84-26.5,26.5ZM399.29,203.35l-102.66-102.66c-2.58-2.58-2.58-6.8,0-9.39l34.24-34.23c3.37-3.38,6-3.37,9.38.01l102.66,102.66c2.58,2.6,2.58,6.8,0,9.4l-34.22,34.22c-2.58,2.61-6.79,2.6-9.4-.01Z" fill="#231f20" stroke-width="0"/>
</svg>