<?xml version="1.0" encoding="UTF-8"?>
<svg id="Layer_3" data-name="Layer 3" xmlns="http://www.w3.org/2000/svg" viewBox="0 0 500 500">
  <path d="M243.32,10c-9.7,0-17.56,7.87-17.56,17.56v8.03c0,29.83,10.26,58.89,28.65,82.33.07.11.06.24.13.36.12.19.31.28.43.47.36.45.6.96.96,1.41.35.42.86.58,1.24.96,1.25,1.29,2.57,2.36,4.11,3.2.66.36,1.29.64,1.99.91,1.65.64,3.31.99,5.08,1.12.41.03.78.26,1.19.26.32,0,.64-.14.96-.16,1.18-.06,2.29-.28,3.45-.59.94-.25,1.82-.58,2.72-.99.66-.3,1.37-.34,2-.73,24.31-14.82,51.89-12.23,81.89,7.73,34.21,23.03,51.55,51.86,51.55,85.77,0,82.36-104.12,176.23-178.35,180.25-25,2.79-48.03-.05-66.51-8.05-.76-.33-1.55-.28-2.33-.49-1.16-.32-2.27-.65-3.45-.73-1.13-.08-2.19.06-3.29.2-1.13.14-2.21.26-3.29.62-1.07.35-2.01.88-3,1.43-.98.54-1.93,1.06-2.8,1.79-.9.75-1.6,1.67-2.35,2.61-.5.63-1.17,1.06-1.59,1.77-.36.61-.6,1.27-.95,1.88-.01.03-.04.05-.06.08,0,.02,0,.04-.01.06-11.22,19.75-17.25,42.23-17.25,65.25v8.16c0,9.7,7.87,17.56,17.56,17.56s17.56-7.87,17.56-17.56v-8.16c0-12.67,2.5-25.09,7.15-36.6,14.37,4.18,30,6.38,46.27,6.38,6.96,0,14.03-.39,21.16-1.17,90.02-4.87,210.63-112.18,210.63-215.26,0-45.66-23.2-85.38-67.15-114.95-35.64-23.7-72.18-29.11-104.66-16.02-9.32-15.34-14.55-32.98-14.55-51.06v-8.03c0-9.7-7.87-17.56-17.56-17.56Z" fill="#231f20" stroke-width="0"/>
  <path d="M52.76,440.31v32.13c0,9.7,7.87,17.56,17.56,17.56s17.56-7.87,17.56-17.56v-32.13c0-22.82,8.14-45.27,22.89-63.2l13.1-15.8c.18-.22.22-.5.39-.72.75-1,1.23-2.12,1.76-3.26.45-.97.97-1.87,1.23-2.89.26-1.01.23-2.05.31-3.11.09-1.25.21-2.46.03-3.7-.04-.29.06-.55,0-.84-2.74-14.29,3.08-28.63,16.34-40.34,8.33-7.32,17.06-13.99,25.58-20.53,31.54-24.21,64.17-49.28,67.6-96.61.38-5.01,1.57-10.43,3.53-16.12.24-.68.13-1.37.28-2.06.26-1.18.46-2.31.47-3.51.01-1.14-.14-2.21-.35-3.32-.2-1.09-.44-2.13-.85-3.18-.44-1.13-1.04-2.13-1.71-3.15-.38-.58-.52-1.25-.98-1.8l-27.84-33.25c-14.79-17.97-22.93-40.43-22.93-63.25V27.56c0-9.7-7.87-17.56-17.56-17.56s-17.56,7.87-17.56,17.56v32.13c0,30.94,10.99,61.33,31.03,85.68l22.01,26.29c-1.24,5.1-2.2,10.15-2.58,15.05-2.3,31.69-25.1,49.18-53.96,71.36-9.11,7-18.43,14.15-27.39,22.02-20.17,17.81-30.29,40.96-28.67,64.58l-8.36,10.07c-19.95,24.24-30.94,54.63-30.94,85.56Z" fill="#231f20" stroke-width="0"/>
</svg>