<?xml version="1.0" encoding="UTF-8"?>
<svg id="Layer_3" data-name="Layer 3" xmlns="http://www.w3.org/2000/svg" viewBox="0 0 500 500">
  <path d="M385.03,14.9c-36.59,0-70.6,9.01-101.08,26.76-20.62,12.03-47.28,12.03-67.9,0-30.48-17.75-64.49-26.76-101.08-26.76-27.77,0-54.12,10.55-74.21,29.7C13.93,70.17,3.64,110.39,13.92,149.55c4.4,16.72,10.45,33.96,16.84,52.21,17.49,49.85,39.24,111.89,45.75,213.59l1.49,13.36c3.57,32.15,30.66,56.39,63.01,56.39,16.93,0,32.85-6.6,44.82-18.56l55.4-55.39c4.69-4.72,12.89-4.69,17.58-.01l55.41,55.37c11.93,11.92,27.81,18.51,44.73,18.54h.06c32.35,0,59.44-24.23,63.02-56.4l1.54-14.13c6.44-100.87,28.19-162.91,45.68-212.76,6.39-18.24,12.44-35.48,16.84-52.21,10.28-39.16-.01-79.38-26.84-104.95-20.1-19.15-46.45-29.7-74.21-29.7ZM452.11,140.63c-4.04,15.35-9.58,31.19-16,49.51-18.2,51.88-40.84,116.44-47.52,221.33l-1.47,13.31c-1.59,14.35-13.67,25.16-28.1,25.16h-.02c-7.54-.01-14.63-2.95-19.96-8.26l-55.4-55.37c-18.56-18.52-48.73-18.52-67.25.02l-55.39,55.39c-5.34,5.34-12.45,8.28-20.01,8.28-14.43,0-26.5-10.8-28.09-25.15l-1.42-12.55c-6.74-105.7-29.39-170.26-47.59-222.14-6.42-18.32-11.97-34.16-16-49.51-7.04-26.8-.49-53.85,17.1-70.61,13.52-12.91,31.28-20.01,49.98-20.01,30.3,0,58.36,7.4,83.4,21.98,31.85,18.56,71.42,18.56,103.25,0,25.05-14.59,53.1-21.98,83.4-21.98,18.7,0,36.46,7.1,49.98,20.01,17.59,16.76,24.14,43.82,17.1,70.61Z" fill="#231f20" stroke-width="0"/>
</svg>