<?xml version="1.0" encoding="UTF-8"?>
<svg id="Layer_3" data-name="Layer 3" xmlns="http://www.w3.org/2000/svg" viewBox="0 0 500 500">
  <path d="M113.48,70.19c0-9.7-7.87-17.56-17.56-17.56s-17.56,7.87-17.56,17.56v26.79c0,42.18-9.59,84.52-27.52,122.72-25.63,25.19-40.84,61.57-40.84,101.11,0,51.19,25.28,97.29,65.98,120.34,7.34,4.15,15.37,6.22,23.41,6.22s16.6-2.21,24.17-6.61c9.8-5.72,16.68-14.49,20.54-24.58.94.03,1.82.31,2.77.31,47.37,0,85.91-42.92,85.91-95.68s-38.54-95.67-85.91-95.67c-.95,0-1.83.28-2.77.31-3.87-10.1-10.75-18.87-20.55-24.58-7.97-4.65-16.78-6.66-25.55-6.4,9.94-31.54,15.47-64.51,15.47-97.49v-26.79ZM197.66,320.81c0,33.4-22.79,60.56-50.79,60.56s-50.79-27.16-50.79-60.56,22.79-60.55,50.79-60.55,50.79,27.16,50.79,60.55ZM105.87,231.21c1,.58,2.66,1.73,4.07,3.6-28.85,15.44-48.97,48.04-48.97,86s20.12,70.57,48.97,86.01c-1.41,1.86-3.06,3.01-4.06,3.6-1.92,1.1-6.95,3.37-12.59.16-29.26-16.57-48.17-51.8-48.17-89.77s18.91-73.21,48.17-89.77c5.59-3.2,10.68-.96,12.58.17Z" fill="#231f20" stroke-width="0"/>
  <path d="M449.16,219.7c-17.93-38.2-27.52-80.54-27.52-122.72v-26.79c0-9.7-7.87-17.56-17.56-17.56s-17.56,7.87-17.56,17.56v26.79c0,32.98,5.54,65.96,15.47,97.49-8.76-.26-17.56,1.74-25.55,6.4-9.81,5.71-16.69,14.48-20.55,24.58-.94-.03-1.82-.31-2.77-.31-47.37,0-85.91,42.92-85.91,95.67s38.54,95.68,85.91,95.68c.95,0,1.83-.28,2.77-.31,3.87,10.1,10.74,18.86,20.54,24.58,7.57,4.4,15.87,6.61,24.17,6.61s16.07-2.07,23.41-6.22c40.7-23.05,65.98-69.16,65.98-120.34,0-39.54-15.21-75.92-40.84-101.11ZM302.34,320.81c0-33.38,22.79-60.55,50.79-60.55s50.79,27.16,50.79,60.55-22.79,60.56-50.79,60.56-50.79-27.16-50.79-60.56ZM406.71,410.58c-5.66,3.21-10.68.94-12.59-.16-1-.59-2.65-1.74-4.06-3.6,28.85-15.45,48.97-48.04,48.97-86.01s-20.12-70.56-48.97-86c1.41-1.86,3.08-3.01,4.07-3.6,1.91-1.13,7-3.37,12.58-.17,29.26,16.57,48.17,51.8,48.17,89.77s-18.91,73.21-48.17,89.77Z" fill="#231f20" stroke-width="0"/>
</svg>