<?xml version="1.0" encoding="UTF-8"?>
<svg id="Layer_3" data-name="Layer 3" xmlns="http://www.w3.org/2000/svg" viewBox="0 0 500 500">
  <path d="M460.71,278.13l11.51-40.86c8.53-29.83,3.75-61.88-13.15-87.93-15.1-23.29-38.71-39.16-65.46-45.59-24.84-48.09-79.8-81.67-143.61-81.67s-118.77,33.58-143.61,81.67c-26.75,6.43-50.36,22.3-65.46,45.59-16.9,26.06-21.68,58.1-13.17,87.88l11.53,40.92c-7.82,5.45-14.6,12.76-19.58,21.79-8.73,15.86-11.71,35.21-8.39,54.51,6.49,37.6,35.44,64.76,66.95,64.76,3.11,0,6.22-.26,9.33-.8,17.42-3,32.74-14.42,42.07-31.32,8.73-15.86,11.71-35.21,8.39-54.5-6.37-36.89-34.24-63.52-65.14-64.54l-11.39-40.41c-5.74-20.08-2.49-41.64,8.87-59.18,5.88-9.08,13.7-16.54,22.69-22.12-.58,4.83-.9,9.72-.9,14.68,0,37,16.28,71.79,45.85,97.97,11.87,10.52,16.9,30.25,13.4,52.87-.53,3.61-.82,7.26-.82,10.99,0,26.02,14.04,49.05,35.64,64.66-.16.94-.56,1.79-.56,2.78v46.74c0,22.58,18.36,40.94,40.93,40.94h46.74c22.57,0,40.93-18.36,40.93-40.94v-46.74c0-.98-.4-1.84-.56-2.78,21.6-15.6,35.64-38.64,35.64-64.66,0-3.73-.3-7.37-.85-11.07-3.48-22.53,1.55-42.27,13.42-52.79,29.57-26.18,45.85-60.97,45.85-97.97,0-4.96-.32-9.85-.9-14.68,9,5.58,16.81,13.04,22.69,22.12,11.36,17.54,14.61,39.1,8.85,59.24l-11.37,40.37c-30.83,1.08-58.77,27.66-65.14,64.53-3.32,19.29-.34,38.64,8.39,54.5,9.33,16.9,24.65,28.32,42.05,31.32,3.13.54,6.24.8,9.33.8,31.51,0,60.48-27.15,66.98-64.76,3.32-19.3.34-38.66-8.39-54.51-4.98-9.04-11.76-16.34-19.58-21.79ZM103.45,338.54c1.94,11.3.3,22.81-4.55,31.58-2.42,4.41-7.89,12.04-17.26,13.65-15.34,2.84-31.92-13.48-35.69-35.31-1.94-11.31-.3-22.82,4.53-31.59,2.42-4.4,7.91-12.04,17.29-13.65,1.12-.21,2.26-.3,3.41-.3,14.5,0,28.79,15.38,32.29,35.61ZM279.18,407.81v29.18c0,3.21-2.61,5.82-5.81,5.82h-46.74c-3.2,0-5.81-2.61-5.81-5.82v-29.18h58.35ZM338.68,232.67c-20.85,18.46-30.16,50.03-24.88,84.35.3,1.9.46,3.83.46,5.8,0,27.5-28.83,49.87-64.25,49.87s-64.25-22.37-64.25-49.87c0-1.97.16-3.9.43-5.72,5.3-34.4-4-65.97-24.86-84.43-21.93-19.42-34-44.88-34-71.67,0-57.23,55.04-103.8,122.68-103.8s122.68,46.57,122.68,103.8c0,26.8-12.07,52.25-34,71.67ZM454.06,348.46c-3.77,21.83-20.03,38-35.72,35.31-9.35-1.61-14.82-9.24-17.24-13.65-4.85-8.77-6.49-20.28-4.55-31.58,3.5-20.24,17.79-35.61,32.29-35.61,1.14,0,2.29.09,3.41.3,9.38,1.61,14.86,9.25,17.29,13.65,4.82,8.77,6.47,20.28,4.53,31.59Z" fill="#231f20" stroke-width="0"/>
  <path d="M250,92.19c-44.06,0-79.9,28.85-79.9,64.31,0,28.26,39.13,61.68,62.33,79.03v84.59c0,9.7,7.87,17.56,17.56,17.56s17.56-7.87,17.56-17.56v-84.59c23.21-17.35,62.33-50.76,62.33-79.03,0-35.47-35.83-64.31-79.9-64.31ZM250,204.74c-24.01-18.7-44.27-40.22-44.77-48.24,0-15.82,20.51-29.19,44.77-29.19s44.75,13.35,44.77,29.15c-.55,8.08-20.79,29.58-44.77,48.27Z" fill="#231f20" stroke-width="0"/>
</svg>